<svg width="561" height="501" viewBox="0 0 561 501" fill="none" xmlns="http://www.w3.org/2000/svg">
<path d="M281.609 7.01227L105.553 115.313C105.553 115.313 105.553 338.682 281.609 460.52C457.666 338.682 457.666 115.313 457.666 115.313L281.609 7.01227Z" fill="#3F3D56"/>
<path opacity="0.04" d="M282.661 7.01227L279.651 8.86356V458.407C280.651 459.113 281.65 459.82 282.661 460.52C458.717 338.682 458.717 115.313 458.717 115.313L282.661 7.01227Z" fill="#6C63FF"/>
<g opacity="0.7">
<path opacity="0.7" d="M238.987 226.471L272.177 256.883L313.32 197.553L329.915 211.376L272.177 284.531L225.158 232.001L238.987 226.471Z" fill="url(#paint0_linear)"/>
</g>
<path d="M246.821 228.298L273.743 252.968L311.884 196.9L325.346 208.114L273.743 275.395L235.603 232.784L246.821 228.298Z" fill="#3AD29F"/>
<path opacity="0.5" d="M107.898 31.2928C107.358 31.0578 106.924 30.6327 106.678 30.0984C106.431 29.564 106.39 28.9577 106.562 28.3949C106.589 28.3086 106.607 28.2194 106.614 28.129C106.629 27.8711 106.562 27.615 106.42 27.3987C106.279 27.1824 106.072 27.0173 105.829 26.9279C105.587 26.8385 105.322 26.8295 105.074 26.9023C104.826 26.9751 104.608 27.1258 104.453 27.3321C104.399 27.4053 104.355 27.4845 104.32 27.5682C104.085 28.1077 103.659 28.5419 103.125 28.7883C102.59 29.0346 101.984 29.0759 101.421 28.9042C101.334 28.8764 101.245 28.859 101.155 28.8521C100.897 28.8364 100.64 28.9042 100.424 29.0454C100.208 29.1866 100.042 29.3937 99.953 29.6361C99.8636 29.8785 99.8546 30.1432 99.9274 30.391C100 30.6389 100.151 30.8567 100.357 31.0122C100.431 31.0657 100.51 31.1104 100.594 31.1453C101.133 31.3802 101.568 31.8054 101.814 32.3397C102.061 32.8741 102.102 33.4804 101.93 34.0432C101.902 34.1295 101.885 34.2187 101.878 34.3091C101.862 34.567 101.93 34.823 102.071 35.0394C102.213 35.2557 102.42 35.4208 102.662 35.5102C102.905 35.5996 103.17 35.6086 103.418 35.5358C103.665 35.463 103.883 35.3123 104.039 35.106C104.092 35.0328 104.137 34.9535 104.172 34.8699C104.407 34.3304 104.832 33.8962 105.367 33.6498C105.902 33.4035 106.508 33.3622 107.071 33.5338C107.157 33.5616 107.247 33.5791 107.337 33.586C107.595 33.6017 107.851 33.5339 108.068 33.3927C108.284 33.2515 108.449 33.0444 108.539 32.802C108.628 32.5596 108.637 32.2949 108.564 32.047C108.491 31.7992 108.341 31.5813 108.134 31.4258C108.061 31.3723 107.982 31.3277 107.898 31.2928Z" fill="#4D8AF0"/>
<path opacity="0.5" d="M12.5919 243.364C12.0522 243.129 11.6178 242.704 11.3714 242.17C11.1249 241.635 11.0836 241.029 11.2554 240.466C11.2832 240.38 11.3007 240.291 11.3075 240.2C11.3232 239.943 11.2554 239.687 11.1142 239.47C10.9729 239.254 10.7657 239.089 10.5232 238.999C10.2808 238.91 10.0159 238.901 9.76798 238.974C9.52002 239.047 9.30212 239.197 9.14654 239.404C9.09304 239.477 9.04836 239.556 9.01343 239.64C8.77839 240.179 8.35311 240.613 7.81854 240.86C7.28398 241.106 6.67746 241.147 6.11443 240.976C6.02811 240.948 5.93882 240.93 5.8484 240.924C5.59044 240.908 5.33428 240.976 5.11786 241.117C4.90145 241.258 4.73629 241.465 4.64684 241.708C4.5574 241.95 4.54843 242.215 4.62126 242.463C4.6941 242.71 4.84486 242.928 5.05123 243.084C5.12444 243.137 5.20371 243.182 5.2874 243.217C5.82708 243.452 6.2615 243.877 6.50795 244.411C6.75441 244.946 6.79569 245.552 6.62395 246.115C6.59616 246.201 6.57866 246.29 6.5718 246.381C6.55609 246.638 6.62389 246.895 6.76515 247.111C6.90642 247.327 7.11362 247.492 7.35609 247.582C7.59856 247.671 7.86339 247.68 8.11135 247.607C8.35931 247.534 8.57722 247.384 8.7328 247.177C8.7863 247.104 8.83098 247.025 8.86591 246.941C9.10095 246.402 9.52622 245.968 10.0608 245.721C10.5953 245.475 11.2019 245.434 11.7649 245.605C11.8512 245.633 11.9405 245.651 12.0309 245.657C12.2889 245.673 12.5451 245.605 12.7615 245.464C12.9779 245.323 13.143 245.116 13.2325 244.873C13.3219 244.631 13.3309 244.366 13.2581 244.119C13.1852 243.871 13.0345 243.653 12.8281 243.497C12.7549 243.444 12.6756 243.399 12.5919 243.364Z" fill="#4D8AF0"/>
<path opacity="0.5" d="M488.541 169.657C490.704 169.657 492.458 167.904 492.458 165.742C492.458 163.58 490.704 161.827 488.541 161.827C486.378 161.827 484.625 163.58 484.625 165.742C484.625 167.904 486.378 169.657 488.541 169.657Z" fill="#F55F44"/>
<path opacity="0.5" d="M79.2471 449.591C81.4103 449.591 83.1638 447.839 83.1638 445.676C83.1638 443.514 81.4103 441.761 79.2471 441.761C77.084 441.761 75.3304 443.514 75.3304 445.676C75.3304 447.839 77.084 449.591 79.2471 449.591Z" fill="#F55F44"/>
<path opacity="0.5" d="M555.125 320.391C557.288 320.391 559.042 318.638 559.042 316.476C559.042 314.314 557.288 312.561 555.125 312.561C552.962 312.561 551.208 314.314 551.208 316.476C551.208 318.638 552.962 320.391 555.125 320.391Z" fill="#F55F44"/>
<path opacity="0.5" d="M459.747 50.2161C459.208 49.9812 458.773 49.5561 458.527 49.0217C458.28 48.4873 458.239 47.881 458.411 47.3182C458.439 47.2319 458.456 47.1427 458.463 47.0523C458.479 46.7944 458.411 46.5384 458.27 46.3221C458.128 46.1057 457.921 45.9406 457.679 45.8512C457.436 45.7618 457.171 45.7528 456.923 45.8257C456.675 45.8985 456.458 46.0492 456.302 46.2554C456.248 46.3286 456.204 46.4079 456.169 46.4915C455.934 47.031 455.509 47.4652 454.974 47.7116C454.439 47.958 453.833 47.9992 453.27 47.8276C453.184 47.7998 453.094 47.7823 453.004 47.7754C452.746 47.7597 452.49 47.8275 452.273 47.9687C452.057 48.1099 451.892 48.3171 451.802 48.5594C451.713 48.8018 451.704 49.0665 451.777 49.3144C451.85 49.5622 452 49.7801 452.207 49.9356C452.28 49.9891 452.359 50.0337 452.443 50.0686C452.982 50.3036 453.417 50.7287 453.663 51.2631C453.91 51.7974 453.951 52.4037 453.779 52.9665C453.752 53.0528 453.734 53.1421 453.727 53.2325C453.712 53.4903 453.779 53.7464 453.921 53.9627C454.062 54.179 454.269 54.3441 454.512 54.4335C454.754 54.5229 455.019 54.5319 455.267 54.4591C455.515 54.3863 455.733 54.2356 455.888 54.0293C455.942 53.9561 455.986 53.8769 456.021 53.7932C456.256 53.2538 456.682 52.8195 457.216 52.5732C457.751 52.3268 458.357 52.2855 458.92 52.4572C459.007 52.485 459.096 52.5025 459.186 52.5093C459.444 52.525 459.7 52.4572 459.917 52.316C460.133 52.1748 460.298 51.9677 460.388 51.7253C460.477 51.483 460.486 51.2182 460.413 50.9704C460.341 50.7225 460.19 50.5047 459.984 50.3492C459.91 50.2957 459.831 50.251 459.747 50.2161Z" fill="#4D8AF0"/>
<path opacity="0.5" d="M525.025 460.003C524.486 459.768 524.051 459.343 523.805 458.809C523.558 458.275 523.517 457.668 523.689 457.106C523.717 457.019 523.734 456.93 523.741 456.84C523.757 456.582 523.689 456.326 523.548 456.109C523.406 455.893 523.199 455.728 522.957 455.639C522.714 455.549 522.449 455.54 522.202 455.613C521.954 455.686 521.736 455.836 521.58 456.043C521.527 456.116 521.482 456.195 521.447 456.279C521.212 456.818 520.787 457.253 520.252 457.499C519.718 457.745 519.111 457.787 518.548 457.615C518.462 457.587 518.372 457.57 518.282 457.563C518.024 457.547 517.768 457.615 517.551 457.756C517.335 457.897 517.17 458.104 517.08 458.347C516.991 458.589 516.982 458.854 517.055 459.102C517.128 459.35 517.278 459.567 517.485 459.723C517.558 459.776 517.637 459.821 517.721 459.856C518.261 460.091 518.695 460.516 518.942 461.05C519.188 461.585 519.229 462.191 519.058 462.754C519.03 462.84 519.012 462.929 519.005 463.02C518.99 463.278 519.057 463.534 519.199 463.75C519.34 463.966 519.547 464.131 519.79 464.221C520.032 464.31 520.297 464.319 520.545 464.246C520.793 464.174 521.011 464.023 521.166 463.817C521.22 463.743 521.265 463.664 521.299 463.581C521.535 463.041 521.96 462.607 522.494 462.36C523.029 462.114 523.635 462.073 524.198 462.244C524.285 462.272 524.374 462.29 524.464 462.297C524.722 462.312 524.979 462.245 525.195 462.103C525.411 461.962 525.577 461.755 525.666 461.513C525.755 461.27 525.764 461.006 525.692 460.758C525.619 460.51 525.468 460.292 525.262 460.136C525.188 460.083 525.109 460.038 525.025 460.003Z" fill="#4D8AF0"/>
<path opacity="0.5" d="M8.02247 119.384C7.48279 119.149 7.04839 118.724 6.80193 118.19C6.55548 117.655 6.51419 117.049 6.68592 116.486C6.71371 116.4 6.73121 116.311 6.73808 116.22C6.75378 115.962 6.68598 115.706 6.54472 115.49C6.40346 115.274 6.19625 115.109 5.95378 115.019C5.71132 114.93 5.44649 114.921 5.19853 114.994C4.95057 115.066 4.73266 115.217 4.57708 115.423C4.52358 115.497 4.4789 115.576 4.44398 115.659C4.20893 116.199 3.78365 116.633 3.24909 116.88C2.71452 117.126 2.108 117.167 1.54497 116.995C1.45865 116.968 1.36936 116.95 1.27894 116.943C1.02098 116.928 0.764819 116.995 0.548404 117.137C0.33199 117.278 0.166828 117.485 0.0773846 117.727C-0.0120587 117.97 -0.0210284 118.234 0.0518056 118.482C0.12464 118.73 0.275406 118.948 0.481767 119.103C0.554983 119.157 0.634257 119.202 0.717945 119.237C1.25762 119.471 1.69204 119.897 1.93849 120.431C2.18495 120.965 2.22623 121.572 2.0545 122.134C2.02671 122.221 2.0092 122.31 2.00234 122.4C1.98664 122.658 2.05444 122.914 2.1957 123.131C2.33696 123.347 2.54417 123.512 2.78663 123.601C3.0291 123.691 3.29393 123.7 3.54189 123.627C3.78985 123.554 4.00777 123.403 4.16335 123.197C4.21685 123.124 4.26152 123.045 4.29645 122.961C4.53149 122.422 4.95677 121.987 5.49133 121.741C6.02589 121.495 6.63242 121.453 7.19545 121.625C7.28177 121.653 7.37106 121.67 7.46148 121.677C7.71944 121.693 7.9756 121.625 8.19201 121.484C8.40843 121.343 8.57358 121.136 8.66302 120.893C8.75247 120.651 8.76143 120.386 8.6886 120.138C8.61577 119.89 8.46501 119.673 8.25865 119.517C8.18543 119.464 8.10616 119.419 8.02247 119.384Z" fill="#4D8AF0"/>
<path opacity="0.5" d="M51.8303 189.233C53.9935 189.233 55.747 187.48 55.747 185.318C55.747 183.155 53.9935 181.403 51.8303 181.403C49.6672 181.403 47.9136 183.155 47.9136 185.318C47.9136 187.48 49.6672 189.233 51.8303 189.233Z" fill="#47E6B1"/>
<path opacity="0.5" d="M557.083 220.554C559.246 220.554 561 218.801 561 216.639C561 214.477 559.246 212.724 557.083 212.724C554.92 212.724 553.167 214.477 553.167 216.639C553.167 218.801 554.92 220.554 557.083 220.554Z" fill="#47E6B1"/>
<g opacity="0.5">
<path opacity="0.5" d="M382.791 0H380.832V11.093H382.791V0Z" fill="#47E6B1"/>
<path opacity="0.5" d="M387.36 6.52527V4.56769L376.263 4.56769V6.52527L387.36 6.52527Z" fill="#47E6B1"/>
</g>
<g opacity="0.5">
<path opacity="0.5" d="M389.971 434.583H388.013V445.676H389.971V434.583Z" fill="#47E6B1"/>
<path opacity="0.5" d="M394.541 441.108V439.151H383.443V441.108H394.541Z" fill="#47E6B1"/>
</g>
<g opacity="0.5">
<path opacity="0.5" d="M19.1913 458.074H17.2329V469.167H19.1913V458.074Z" fill="#47E6B1"/>
<path opacity="0.5" d="M23.7607 464.599V462.642H12.6635V464.599H23.7607Z" fill="#47E6B1"/>
</g>
<g opacity="0.5">
<path opacity="0.5" d="M465.041 258.401H463.083V269.494H465.041V258.401Z" fill="#47E6B1"/>
<path opacity="0.5" d="M469.611 264.926V262.969H458.513V264.926H469.611Z" fill="#47E6B1"/>
</g>
<path opacity="0.5" d="M519.357 80.2726L523.563 84.1265L529.521 75.3669L531.625 77.119L523.563 87.6305L517.604 80.9735L519.357 80.2726Z" fill="#47E6B1"/>
<path d="M399.286 156.131L384.778 156.694L385.501 175.34L400.01 174.778L399.286 156.131Z" fill="#6C63FF"/>
<path d="M333.839 221.435C333.839 221.435 313.747 211.84 314.068 220.127C314.39 228.414 334.321 233.866 334.321 233.866L333.839 221.435Z" fill="#FFB9B9"/>
<path d="M344.862 291.556C344.862 291.556 335.383 314.748 331.881 331.484C328.378 348.219 323.045 371.25 329.905 387.584C336.766 403.917 356.273 451.923 356.473 457.102C356.674 462.282 354.803 467.542 358.948 467.381C363.093 467.22 385.651 460.121 386.567 456.973C387.483 453.825 378.871 445.859 378.871 445.859L357.605 379.248L379.793 335.851L395.796 400.592L398.931 481.393C398.931 481.393 414.315 476.647 416.548 480.71C416.548 480.71 423.441 471.106 424.316 466.922C425.192 462.738 421.061 383.013 421.061 383.013C421.061 383.013 435.183 292.205 423.783 292.647C412.384 293.089 367.733 265.77 344.862 291.556Z" fill="#6C63FF"/>
<path d="M358.787 463.237C358.787 463.237 348.272 486.469 347.276 487.545C346.28 488.622 339.427 499.262 344.609 499.061C349.79 498.86 362.025 493.199 371.031 484.55C380.036 475.901 391.909 460.916 390.833 459.92C389.756 458.924 382.382 456.098 382.382 456.098L358.787 463.237Z" fill="#575A89"/>
<path d="M400.803 476.133C400.803 476.133 400.168 486.533 398.256 490.757C396.344 494.981 396.586 501.196 401.767 500.995C406.949 500.794 420.341 498.2 420.341 498.2C420.341 498.2 421.136 491.945 420.059 490.949C418.983 489.953 414.395 478.719 416.347 475.531C418.3 472.343 400.803 476.133 400.803 476.133Z" fill="#575A89"/>
<path d="M408.468 138.657C408.468 138.657 419.515 155.866 423.821 159.849C428.127 163.832 416.013 172.601 416.013 172.601L394.33 175.517C394.33 175.517 394.603 155.794 393.486 153.762C392.37 151.731 408.468 138.657 408.468 138.657Z" fill="#FFB9B9"/>
<path d="M389.622 161.175C389.622 161.175 394.089 169.301 398.234 169.141C402.38 168.98 423.821 159.849 424.737 156.701C425.652 153.553 431.839 179.25 431.839 179.25L379.374 271.544L366.576 262.703L372.777 208.514L377.87 179.267L389.622 161.175Z" fill="#6C63FF"/>
<path d="M426.672 243.774C424.579 248.15 423.272 252.714 423.453 257.386C423.461 257.593 423.469 257.8 423.488 258.007C423.984 267.595 427.517 278.683 428.785 286.747C429.705 292.532 429.443 296.754 426.057 297.746C417.846 300.139 427.254 301.85 395.49 312.418C363.725 322.987 358.182 313.864 358.102 311.793C358.021 309.721 362.6 293.981 361.524 292.985C360.447 291.99 346.461 306.019 342.235 304.108C338.01 302.197 341.753 291.677 341.753 291.677C341.753 291.677 351.272 269.521 351.071 264.341C350.871 259.162 365.491 234.733 365.491 234.733L375.435 170.024C375.435 170.024 379.259 161.576 384.401 160.34C389.542 159.103 393.808 162.05 393.808 162.05L385.204 181.058L376.127 214.609L377.646 227C377.646 227 388.201 204.804 395.134 196.235C402.067 187.667 416.848 167.382 416.848 167.382C416.848 167.382 420.299 155.742 417.694 152.264C415.088 148.775 428.56 148.253 434.305 162.555C437.349 170.135 442.292 181.439 445.388 191.963C448.147 201.287 449.451 210.003 446.717 214.985C442.539 222.596 432.03 232.6 426.672 243.774Z" fill="#575A89"/>
<path opacity="0.1" d="M446.717 214.985C442.539 222.596 432.03 232.6 426.672 243.774C425.272 238.734 423.565 233.519 423.565 233.519C423.565 233.519 417.017 198.499 436.386 189.449C439.595 189.138 442.805 190.035 445.388 191.963C448.148 201.287 449.451 210.003 446.717 214.985Z" fill="black"/>
<path d="M369.829 212.778L353.408 217.564L330.609 218.448L328.264 238.251L365.732 240.949C365.732 240.949 375.091 214.649 369.829 212.778Z" fill="#575A89"/>
<path d="M396.604 279.362C396.604 279.362 374.637 283.005 379.651 289.613C384.665 296.221 404.125 289.274 404.125 289.274L396.604 279.362Z" fill="#FFB9B9"/>
<path opacity="0.1" d="M423.488 258.007C423.984 267.595 427.517 278.683 428.785 286.747C421.787 293.368 415.133 299.207 412.625 299.304C407.443 299.505 399.112 298.791 396.044 299.947C392.975 301.104 391.175 281.461 391.175 281.461C391.175 281.461 393.007 275.165 401.176 271.736C406.691 269.417 417.262 263.124 423.488 258.007Z" fill="black"/>
<path d="M436.145 183.233C436.145 183.233 453.682 180.478 452.734 209.564C451.787 238.65 454.583 257.217 447.53 262.677C440.476 268.138 417.565 292.888 412.384 293.089C407.202 293.29 398.871 292.575 395.803 293.732C392.734 294.888 390.934 275.246 390.934 275.246C390.934 275.246 392.765 268.95 400.935 265.521C409.105 262.092 428.353 249.934 428.193 245.79C428.032 241.646 423.324 227.304 423.324 227.304C423.324 227.304 416.776 192.284 436.145 183.233Z" fill="#575A89"/>
<path d="M393.004 164.139C405.605 164.139 415.82 153.928 415.82 141.332C415.82 128.735 405.605 118.524 393.004 118.524C380.403 118.524 370.188 128.735 370.188 141.332C370.188 153.928 380.403 164.139 393.004 164.139Z" fill="#FFB9B9"/>
<path d="M377.641 108.642C377.091 109.116 376.432 109.447 375.723 109.604C375.367 109.668 375 109.588 374.703 109.382C374.406 109.176 374.202 108.861 374.136 108.506C373.614 109.588 373.025 110.741 371.96 111.297C370.894 111.852 369.246 111.386 369.092 110.195C368.937 111.1 368.536 111.944 367.934 112.638C367.273 113.268 366.074 113.427 365.497 112.719C365.963 115.269 365.675 117.891 365.822 120.479C365.969 123.067 366.659 125.811 368.615 127.512C371.467 129.994 375.757 129.382 379.509 128.911C380.077 128.792 380.666 128.824 381.217 129.005C382.622 129.603 382.558 131.558 382.577 133.085C382.691 135.763 383.752 138.314 385.57 140.285C387.388 142.256 389.846 143.519 392.507 143.85C393.996 144.079 395.516 143.709 396.732 142.819C397.797 141.916 398.342 140.445 399.562 139.767C401.548 138.664 403.957 140.272 405.409 142.019C406.86 143.766 408.291 145.914 410.541 146.234C413.515 146.657 415.781 143.626 416.892 140.836C418.426 136.925 419.161 132.747 419.053 128.548C418.946 124.349 417.998 120.213 416.267 116.386C410.056 102.852 388.838 100.711 377.641 108.642Z" fill="#2F2E41"/>
<defs>
<linearGradient id="paint0_linear" x1="225.158" y1="241.042" x2="329.915" y2="241.042" gradientUnits="userSpaceOnUse">
<stop stop-color="#808080" stop-opacity="0.25"/>
<stop offset="0.53514" stop-color="#808080" stop-opacity="0.12"/>
<stop offset="1" stop-color="#808080" stop-opacity="0.1"/>
</linearGradient>
</defs>
</svg>
