<svg width="586" height="472" viewBox="0 0 586 472" fill="none" xmlns="http://www.w3.org/2000/svg">
<g clip-path="url(#clip0)">
<path d="M333.504 417.567C329.456 411.899 323.976 407.751 317.087 406.199C311.079 404.846 304.902 405.076 298.795 405.123L221.581 405.719C214.968 405.77 208.627 411.499 208.934 418.365C209.239 425.173 214.492 431.066 221.581 431.011C244.199 430.837 266.818 430.662 289.436 430.488C294.769 430.447 300.104 430.351 305.437 430.368C306.634 430.372 307.827 430.435 309.023 430.449C309.313 430.452 309.522 430.449 309.67 430.443C309.707 430.454 309.738 430.465 309.787 430.478C310.411 430.649 311.051 430.767 311.679 430.93C311.459 430.937 312.086 431.328 312.401 431.461C312.444 431.546 312.536 431.697 312.69 431.931C312.905 432.334 313.542 433.558 313.568 433.52C314.524 435.937 315.313 438.418 315.929 440.944C317.398 446.514 317.721 447.678 317.933 452.904C318.2 459.505 323.558 465.864 330.579 465.55C337.202 465.253 343.512 459.984 343.225 452.904C342.742 440.973 340.648 427.572 333.504 417.567Z" fill="#E6E6E6"/>
<path d="M226.119 446.105C224.669 437.316 223.247 428.522 221.768 419.738C220.268 410.827 217.204 402.667 210.27 396.819C208.417 395.256 206.496 393.797 204.566 392.343C203.888 391.832 203.21 391.32 202.54 390.797C202.5 390.766 202.475 390.746 202.44 390.719C202.366 390.656 202.278 390.581 202.159 390.48C199.269 388.034 196.476 385.479 193.816 382.763C191.453 380.351 189.194 377.837 187.038 375.219C186.5 374.565 185.968 373.906 185.443 373.24C185.353 373.126 184.866 372.497 184.546 372.087C184.248 371.677 183.704 370.936 183.612 370.806C182.999 369.939 182.397 369.064 181.805 368.181C177.777 362.146 174.289 355.768 171.382 349.12C171.094 348.461 170.813 347.798 170.538 347.131C170.464 346.927 170.369 346.666 170.242 346.317C169.656 344.706 169.072 343.097 168.536 341.467C167.398 338.005 166.419 334.491 165.601 330.926C165.196 329.166 164.831 327.397 164.507 325.619C164.34 324.705 164.184 323.788 164.038 322.87C164.014 322.718 163.872 321.727 163.789 321.167C163.727 320.605 163.612 319.609 163.597 319.455C163.504 318.53 163.422 317.603 163.35 316.676C163.188 314.589 163.079 312.499 163.022 310.405C162.925 306.685 162.991 302.964 163.222 299.244C163.353 297.154 163.54 295.069 163.77 292.988C163.784 292.86 163.795 292.758 163.805 292.666C163.818 292.574 163.835 292.468 163.854 292.337C164.024 291.187 164.203 290.038 164.404 288.893C165.162 284.547 166.149 280.243 167.359 275.999C167.932 273.993 168.555 272.002 169.227 270.028C169.526 269.151 169.835 268.278 170.154 267.409C170.133 267.465 171.088 265.025 171.101 264.943C174.89 255.989 181.089 247.826 181.098 237.654C181.104 230.767 175.277 224.17 168.452 224.488C165.049 224.616 161.828 226.06 159.469 228.516C157.11 230.972 155.796 234.248 155.805 237.654C155.805 237.808 155.805 237.94 155.804 238.068C155.741 238.283 155.687 238.462 155.639 238.62C154.9 240.226 153.995 241.752 153.184 243.318C150.962 247.605 149.066 252.032 147.265 256.524C144.316 263.84 142.059 271.415 140.524 279.152C137.185 296.103 136.926 313.516 139.759 330.559C144.662 360.446 160.832 389.055 183.311 408.285C185.262 409.954 187.261 411.566 189.278 413.146C190.113 413.8 190.954 414.442 191.8 415.08C192.2 415.381 193.857 416.687 193.128 416.054C194.695 417.392 195.354 418.065 195.757 419.05C195.815 419.277 195.895 419.585 196.002 420.007C196.286 421.117 196.555 422.226 196.779 423.352C198.736 433.193 200.096 443.2 201.73 453.105C202.854 459.911 211.232 464.34 217.287 462.301C224.334 459.926 227.323 453.397 226.119 446.105Z" fill="#E6E6E6"/>
<path d="M334.783 471.631C329.472 471.645 324.372 469.551 320.603 465.81C316.833 462.068 314.702 456.984 314.676 451.673V437.248C299.572 438.938 247.854 438.547 233.029 436.165V451.096C232.989 456.403 230.853 461.479 227.086 465.218C223.32 468.956 218.228 471.054 212.921 471.054C207.614 471.054 202.522 468.956 198.756 465.218C194.989 461.479 192.853 456.403 192.813 451.096V421.78C172.734 410.625 155.995 394.314 144.324 374.53C132.653 354.747 126.473 332.207 126.421 309.238C126.421 269.853 144.27 233.112 175.392 208.437C195.628 192.339 220.213 182.657 245.992 180.636C249.491 180.362 253.011 180.223 256.455 180.223C268.59 180.223 323.337 182.097 337.073 186.049L368.395 154.97C368.855 154.507 369.443 154.191 370.084 154.063C370.724 153.936 371.388 154.002 371.991 154.253C372.598 154.495 373.119 154.914 373.483 155.457C373.848 155.999 374.04 156.64 374.034 157.293V162.235L380.133 156.195C380.592 155.731 381.18 155.415 381.82 155.287C382.46 155.159 383.124 155.225 383.726 155.477C384.334 155.718 384.855 156.138 385.22 156.681C385.585 157.224 385.777 157.864 385.771 158.518V213.739C401.488 227.907 413.466 245.734 420.646 265.64C427.825 285.545 429.984 306.914 426.929 327.853C423.875 348.792 415.703 368.654 403.137 385.68C390.571 402.705 373.999 416.368 354.89 425.457V451.673C354.864 456.984 352.733 462.068 348.963 465.81C345.194 469.551 340.094 471.645 334.783 471.631ZM316.256 435.455V451.673C316.296 456.561 318.266 461.234 321.736 464.676C325.206 468.118 329.895 470.05 334.783 470.05C339.671 470.05 344.36 468.118 347.83 464.676C351.3 461.234 353.27 456.561 353.31 451.673V424.458L353.761 424.244C375.202 414.07 393.404 398.152 406.346 378.258C422.837 352.872 429.696 322.421 425.68 292.416C421.664 262.411 407.039 234.835 384.453 214.679L384.19 214.444V158.518C384.196 158.178 384.097 157.845 383.908 157.563C383.718 157.281 383.447 157.064 383.13 156.941C382.815 156.806 382.467 156.77 382.131 156.837C381.795 156.903 381.487 157.07 381.248 157.315L372.453 166.025V157.293C372.459 156.954 372.36 156.62 372.17 156.338C371.981 156.056 371.709 155.839 371.392 155.716C371.077 155.582 370.728 155.546 370.391 155.613C370.055 155.68 369.747 155.847 369.507 156.093L337.515 187.837L337.06 187.695C324.291 183.698 268.682 181.803 256.455 181.803C253.052 181.803 249.573 181.941 246.116 182.212C220.651 184.209 196.364 193.772 176.375 209.675C145.633 234.049 128.002 270.338 128.002 309.238C128.054 332.004 134.201 354.341 145.805 373.928C157.409 393.516 174.045 409.639 193.986 420.623L194.394 420.849V451.097C194.435 455.983 196.405 460.656 199.875 464.097C203.345 467.539 208.034 469.469 212.921 469.469C217.808 469.469 222.497 467.539 225.967 464.097C229.437 460.656 231.407 455.983 231.448 451.097V434.273L232.384 434.449C245.707 436.955 301.806 437.35 315.363 435.572L316.256 435.455Z" fill="#10AC84"/>
<path d="M227.63 94.1493L140.102 120.453C137.318 121.293 134.982 123.204 133.606 125.766C132.23 128.328 131.927 131.331 132.764 134.116C133.6 136.901 135.508 139.239 138.069 140.618C140.629 141.997 143.632 142.304 146.418 141.47L223.014 118.446L224.619 117.964C224.943 109.695 227.186 101.615 231.171 94.3627C230.671 94.1377 230.136 93.9987 229.59 93.9516C228.93 93.8877 228.264 93.9549 227.63 94.1493Z" fill="#10AC84"/>
<path d="M144.904 147.078C143.742 147.075 142.61 146.707 141.669 146.026C140.727 145.345 140.024 144.385 139.657 143.283L134.184 126.767C133.955 126.077 133.865 125.349 133.918 124.624C133.97 123.9 134.165 123.193 134.492 122.543C134.818 121.894 135.269 121.315 135.818 120.84C136.368 120.365 137.006 120.003 137.696 119.775L208.935 96.1655C209.624 95.9369 210.352 95.8464 211.077 95.8991C211.801 95.9518 212.509 96.1467 213.158 96.4727C213.807 96.7988 214.386 97.2495 214.861 97.7991C215.336 98.3488 215.698 98.9867 215.927 99.6764L221.4 116.192C221.855 117.551 221.764 119.033 221.146 120.325C220.527 121.618 219.43 122.618 218.086 123.116C218.02 123.14 217.954 123.164 217.887 123.185L146.65 146.794C146.087 146.981 145.497 147.077 144.904 147.078Z" fill="#10AC84"/>
<path d="M278.317 64.8179C263.939 64.8234 250.128 70.4234 239.806 80.4326C229.484 90.4418 223.462 104.075 223.014 118.446C222.998 119.007 222.99 119.576 222.99 120.145C222.99 131.088 226.235 141.785 232.315 150.883C238.394 159.982 247.035 167.073 257.145 171.261C267.254 175.448 278.379 176.544 289.111 174.409C299.844 172.274 309.702 167.005 317.44 159.267C325.177 151.53 330.447 141.671 332.581 130.939C334.716 120.206 333.621 109.082 329.433 98.9722C325.245 88.8625 318.154 80.2216 309.056 74.1422C299.957 68.0628 289.26 64.8179 278.317 64.8179ZM278.317 173.891C264.067 173.877 250.406 168.209 240.329 158.133C230.253 148.057 224.586 134.395 224.571 120.145C224.571 119.41 224.587 118.683 224.618 117.964C225.046 107.435 228.56 97.2654 234.721 88.718C240.883 80.1705 249.421 73.6229 259.274 69.8892C269.128 66.1554 279.861 65.4004 290.14 67.7178C300.418 70.0353 309.789 75.3231 317.087 82.9237C324.385 90.5242 329.287 100.102 331.185 110.467C333.083 120.831 331.892 131.525 327.761 141.218C323.63 150.911 316.74 159.176 307.949 164.986C299.159 170.795 288.854 173.892 278.317 173.891Z" fill="#10AC84"/>
<path d="M324.95 120.145C324.95 132.513 320.037 144.374 311.292 153.119C302.547 161.865 290.685 166.778 278.317 166.778C265.95 166.778 254.088 161.865 245.343 153.119C236.598 144.374 231.685 132.513 231.685 120.145C231.685 118.667 231.756 117.213 231.89 115.774C233.014 103.838 238.691 92.793 247.744 84.9328C256.797 77.0727 268.529 73.0011 280.505 73.5636C292.481 74.1261 303.78 79.2794 312.056 87.9534C320.333 96.6275 324.95 108.156 324.95 120.145Z" fill="#E6E6E6"/>
<path d="M292.204 123.243C291.074 121.757 289.587 120.58 287.881 119.821C285.777 118.934 283.604 118.22 281.384 117.687V104.993C284.797 105.508 287.997 106.967 290.623 109.206L293.2 103.713C291.718 102.392 290.017 101.341 288.173 100.606C286.13 99.779 283.984 99.2287 281.795 98.9704V92.5366H275.828V99.0336C273.523 99.2924 271.3 100.039 269.307 101.223C267.506 102.289 265.99 103.775 264.888 105.554C263.837 107.291 263.292 109.287 263.316 111.316C263.213 113.516 263.85 115.686 265.126 117.481C266.3 119.035 267.85 120.265 269.631 121.054C271.768 121.967 273.979 122.699 276.239 123.243V135.407C272.211 135.104 268.374 133.572 265.244 131.021L262.668 136.522C264.418 137.969 266.408 139.098 268.548 139.857C270.893 140.696 273.343 141.207 275.828 141.375V147.753H281.795V141.256C285.109 140.894 288.218 139.469 290.655 137.194C291.729 136.164 292.576 134.923 293.145 133.549C293.714 132.175 293.991 130.697 293.959 129.211C294.058 127.081 293.44 124.98 292.204 123.243ZM276.239 116.343C274.785 115.902 273.434 115.177 272.263 114.209C271.799 113.796 271.432 113.286 271.189 112.715C270.946 112.144 270.832 111.526 270.856 110.905C270.813 109.497 271.33 108.13 272.294 107.103C273.363 106.026 274.743 105.311 276.239 105.056V116.343ZM285.13 133.163C284.122 134.197 282.809 134.881 281.384 135.115V124.65C282.746 125.016 284.021 125.653 285.13 126.523C285.551 126.883 285.885 127.332 286.108 127.838C286.332 128.345 286.438 128.895 286.419 129.448C286.474 130.804 286.013 132.131 285.13 133.163Z" fill="#10AC84"/>
<path d="M147.444 214.014C146.222 214.012 145.035 213.607 144.067 212.862C143.099 212.117 142.404 211.073 142.089 209.892L139.109 198.613C138.736 197.195 138.941 195.688 139.678 194.421C140.415 193.154 141.625 192.231 143.042 191.854L237.051 167.013C238.47 166.643 239.977 166.849 241.244 167.588C242.51 168.326 243.433 169.536 243.81 170.953L246.334 180.509L245.861 180.545C221.751 182.42 198.682 191.162 179.383 205.736L179.246 205.802L148.848 213.832C148.39 213.953 147.918 214.014 147.444 214.014Z" fill="#10AC84"/>
<path d="M131.874 269.726C120.847 268.097 110.3 264.109 100.953 258.035C96.322 255.027 92.0351 251.521 88.169 247.579C84.3531 243.687 80.7026 239.263 78.8126 234.08C76.9941 229.284 77.0878 223.973 79.0744 219.245C81.0338 214.545 84.7769 210.815 89.4828 208.871C94.2169 206.983 99.9366 206.781 104.544 208.848C106.739 209.811 108.639 211.34 110.048 213.279C110.704 214.173 111.189 215.18 111.479 216.25C111.749 217.219 111.774 218.24 111.551 219.221C111.281 220.2 110.804 221.11 110.153 221.891C109.503 222.671 108.693 223.303 107.778 223.744C105.764 224.777 103.582 225.443 101.334 225.709C99.0736 226.018 95.8262 226.298 94.0089 224.483C93.6348 224.124 93.3405 223.691 93.1453 223.21C93.0087 222.842 92.962 222.447 93.009 222.058C92.9825 222.229 93.1187 221.684 93.1109 221.706C93.0822 221.787 92.9577 221.983 93.1346 221.681C93.1899 221.582 93.2515 221.486 93.3189 221.394C93.2588 221.472 93.1269 221.602 93.3625 221.379C93.5572 221.166 93.8074 221.012 94.0851 220.933C94.1945 220.901 94.3055 220.876 94.4152 220.846C94.694 220.77 94.1373 220.85 94.4225 220.841C94.5326 220.838 94.644 220.84 94.7537 220.835C95.0335 220.823 94.4777 220.759 94.7458 220.826C94.85 220.853 94.9531 220.878 95.0557 220.91C95.2786 220.981 94.8978 220.747 95.0489 220.922C95.2259 221.127 94.863 220.722 95.0642 220.921C95.1643 221.019 95.2587 221.123 95.3469 221.233C95.6959 221.577 96.1666 221.77 96.657 221.77C97.1474 221.77 97.618 221.577 97.967 221.233C98.3042 220.88 98.4923 220.411 98.4923 219.923C98.4923 219.435 98.3042 218.965 97.967 218.613C96.1401 216.348 92.5315 216.907 90.6834 218.821C88.3265 221.263 89.2598 225.131 91.5524 227.261C94.1478 229.672 97.8237 229.84 101.162 229.436C103.984 229.165 106.733 228.388 109.279 227.142C111.808 225.899 113.786 223.762 114.831 221.144C115.302 219.747 115.471 218.266 115.327 216.799C115.183 215.332 114.729 213.912 113.996 212.633C111.048 207.091 104.944 204.25 98.9116 203.758C95.8055 203.515 92.682 203.89 89.7219 204.862C86.7618 205.833 84.0237 207.382 81.6663 209.419C77.1223 213.51 74.3242 219.191 73.8507 225.286C73.3241 231.606 75.7762 237.744 79.3512 242.844C83.0938 248.027 87.56 252.645 92.6135 256.56C102.493 264.448 114.081 269.913 126.452 272.519C127.923 272.823 129.402 273.083 130.889 273.299C131.363 273.414 131.862 273.344 132.285 273.104C132.709 272.863 133.024 272.47 133.168 272.005C133.295 271.532 133.231 271.027 132.989 270.6C132.747 270.174 132.346 269.86 131.874 269.726L131.874 269.726Z" fill="#10AC84"/>
<path d="M308.436 189.204C292.279 188.976 276.172 189.386 260.117 190.435C254.629 190.793 249.881 192.733 249.881 195.993C249.881 198.718 254.591 201.911 260.117 201.551C276.164 200.503 292.27 200.093 308.436 200.32C321.615 200.507 321.607 189.39 308.436 189.204Z" fill="#CCCCCC"/>
<path d="M284.555 199.77C282.809 199.77 241.79 199.705 241.79 194.039C241.79 188.373 282.809 188.308 284.555 188.308C286.301 188.308 327.319 188.373 327.319 194.039C327.319 199.705 286.301 199.77 284.555 199.77ZM243.394 194.039C244.517 195.757 259.594 198.189 284.555 198.189C309.515 198.189 324.593 195.757 325.715 194.039C324.593 192.321 309.515 189.889 284.555 189.889C259.594 189.889 244.517 192.321 243.394 194.039V194.039Z" fill="#10AC84"/>
<path d="M414.695 348.719C423.776 348.467 435.076 348.151 443.782 341.792C446.375 339.82 448.505 337.306 450.023 334.425C451.542 331.543 452.411 328.365 452.572 325.112C452.75 320.089 450.935 315.705 447.462 312.771C442.915 308.928 436.275 308.027 429.119 310.13L436.533 255.951L431.091 255.205L422.375 318.9L426.92 316.814C432.189 314.398 439.422 313.168 443.916 316.966C445.02 317.959 445.88 319.193 446.429 320.572C446.978 321.952 447.202 323.439 447.082 324.919C446.949 327.34 446.296 329.704 445.167 331.85C444.039 333.996 442.461 335.874 440.542 337.355C433.767 342.304 424.759 342.942 414.542 343.228L414.695 348.719Z" fill="#10AC84"/>
<path d="M399.648 260.623H370.062V266.116H399.648V260.623Z" fill="#10AC84"/>
<path d="M160.832 239.28C159.515 239.276 158.243 238.803 157.243 237.946C156.243 237.089 155.581 235.904 155.375 234.603L153.569 223.078C153.344 221.628 153.702 220.149 154.567 218.963C155.431 217.778 156.73 216.984 158.179 216.755L254.236 201.704C255.685 201.479 257.165 201.837 258.35 202.702C259.536 203.566 260.33 204.865 260.558 206.314L262.364 217.839C262.59 219.289 262.231 220.769 261.367 221.954C260.503 223.139 259.204 223.933 257.755 224.162L161.698 239.213C161.411 239.257 161.122 239.28 160.832 239.28Z" fill="#10AC84"/>
<path d="M121.079 104.216C143.342 104.216 161.389 86.1689 161.389 63.9065C161.389 41.644 143.342 23.5967 121.079 23.5967C98.8166 23.5967 80.7693 41.644 80.7693 63.9065C80.7693 86.1689 98.8166 104.216 121.079 104.216Z" fill="#10AC84"/>
<path d="M143.902 74.3366C145.19 73.886 146.367 73.1648 147.353 72.2214C148.006 71.5489 148.503 70.7417 148.811 69.8566C149.119 68.9715 149.23 68.0297 149.135 67.0973C149.081 66.4328 148.873 65.7899 148.528 65.219C148.184 64.648 147.712 64.1645 147.15 63.8061C145.691 62.9089 143.763 62.9428 141.817 63.845L141.593 48.1101L140.012 48.1326L140.276 66.6307L141.479 65.8415C142.875 64.9279 144.879 64.2654 146.322 65.1527C146.678 65.3875 146.976 65.7015 147.192 66.0702C147.407 66.4389 147.535 66.8524 147.565 67.2784C147.631 67.973 147.547 68.6738 147.319 69.3331C147.09 69.9923 146.722 70.5946 146.24 71.0989C144.526 72.7991 141.99 73.3688 139.095 73.8898L139.376 75.4454C140.914 75.2118 142.429 74.8407 143.902 74.3366Z" fill="#10AC84"/>
<path d="M157.87 47.0055L149.452 48.2803L149.689 49.843L158.106 48.5682L157.87 47.0055Z" fill="#10AC84"/>
<path d="M131.299 51.0284L122.881 52.3032L123.118 53.866L131.536 52.5912L131.299 51.0284Z" fill="#10AC84"/>
<path d="M147.717 238.575C146.268 238.572 144.853 238.128 143.663 237.301C142.472 236.475 141.561 235.305 141.051 233.948L113.259 159.518C109.862 150.389 110.224 140.286 114.267 131.425C118.31 122.564 125.703 115.668 134.824 112.251L157.422 103.812C158.296 103.484 159.226 103.331 160.159 103.364C161.092 103.396 162.009 103.613 162.858 104.001C163.705 104.38 164.468 104.923 165.103 105.6C165.737 106.276 166.231 107.072 166.554 107.942L218.037 205.147C218.371 206.023 218.529 206.957 218.501 207.895C218.473 208.833 218.259 209.756 217.873 210.611C217.487 211.465 216.936 212.236 216.251 212.877C215.566 213.518 214.761 214.017 213.882 214.346L150.203 238.124C149.409 238.422 148.567 238.575 147.717 238.575Z" fill="#10AC84"/>
<path d="M150.566 106.372L201.648 174.682L167.083 107.089C166.797 106.301 166.359 105.576 165.794 104.957C165.228 104.337 164.546 103.836 163.787 103.48C163.027 103.124 162.205 102.922 161.367 102.884C160.529 102.846 159.692 102.973 158.903 103.259L150.566 106.372Z" fill="#E6E6E6"/>
<path d="M231.448 158.249L140.241 152.374C138.803 152.282 137.398 151.907 136.105 151.271C134.812 150.636 133.657 149.751 132.706 148.669C131.755 147.587 131.026 146.329 130.562 144.965C130.097 143.601 129.906 142.159 129.998 140.722C130.091 139.284 130.466 137.879 131.101 136.586C131.737 135.293 132.621 134.138 133.703 133.187C134.785 132.236 136.044 131.508 137.408 131.043C138.771 130.578 140.213 130.387 141.651 130.479L232.858 136.354C233.531 136.397 234.189 136.573 234.795 136.871C235.4 137.168 235.941 137.582 236.387 138.089C236.832 138.596 237.173 139.185 237.391 139.824C237.608 140.463 237.698 141.138 237.655 141.811L236.905 153.453C236.817 154.813 236.193 156.082 235.17 156.981C234.146 157.881 232.807 158.337 231.448 158.249Z" fill="#10AC84"/>
<path d="M207.076 162.016C206.956 162.016 206.835 162.012 206.714 162.004H206.714L131.82 157.18C131.094 157.134 130.386 156.945 129.734 156.624C129.082 156.304 128.499 155.858 128.019 155.312C127.54 154.766 127.172 154.131 126.938 153.444C126.704 152.756 126.607 152.029 126.654 151.304L127.935 131.419C127.981 130.694 128.17 129.985 128.491 129.333C128.812 128.681 129.258 128.099 129.803 127.619C130.349 127.139 130.984 126.772 131.672 126.538C132.36 126.303 133.087 126.207 133.812 126.254L208.706 131.077C210.169 131.173 211.535 131.846 212.504 132.948C213.472 134.049 213.964 135.49 213.871 136.954L212.591 156.839C212.52 157.905 212.144 158.927 211.506 159.784C210.869 160.641 209.998 161.295 208.998 161.669C208.383 161.899 207.732 162.016 207.076 162.016Z" fill="#10AC84"/>
<path d="M120.617 37.1012C125.92 32.5404 133.202 36.6203 139.283 35.9061C145.101 35.2228 149.696 30.0039 150.869 24.4594C152.238 17.9909 148.881 11.5104 143.932 7.47734C138.512 3.06019 131.324 1.79214 124.512 2.60934C116.705 3.54595 109.565 7.18517 103.158 11.587C96.9742 15.7042 91.2873 20.5232 86.211 25.9477C81.6654 30.968 77.8141 36.952 76.5843 43.7075C75.4667 49.8469 76.32 56.6501 79.9494 61.851C81.8739 64.5166 84.4529 66.6414 87.4376 68.0202C90.5497 69.5483 93.8695 70.6408 96.8845 72.3686C101.443 74.9811 105.874 80.3981 104.446 86.0352C104.14 87.2666 103.536 88.4039 102.687 89.3469C101.666 90.4793 99.8264 88.9829 100.849 87.8475C102.646 85.8533 102.575 83.1937 101.617 80.8129C100.479 78.13 98.4632 75.9132 95.9002 74.5259C92.7442 72.7215 89.2598 71.6077 86.0251 69.9641C82.929 68.4627 80.2415 66.2355 78.1912 63.472C74.3198 58.0918 73.1617 51.0899 74.0397 44.6125C74.9899 37.6031 78.5913 31.2335 83.106 25.8958C88.0192 20.0869 94.0544 15.1698 100.22 10.7525C106.835 6.01265 114.144 2.00544 122.232 0.556101C129.243 -0.700252 136.842 0.0732381 142.973 3.89385C148.696 7.46016 153.084 13.5949 153.52 20.4499C153.677 23.5689 153 26.6733 151.558 29.4436C150.117 32.214 147.963 34.5502 145.319 36.2118C142.606 37.8354 139.451 38.5662 136.301 38.3011C132.932 38.0855 129.561 37.054 126.171 37.3404C124.637 37.4335 123.175 38.0241 122.007 39.0227C120.849 40.0192 119.468 38.0895 120.617 37.1012V37.1012Z" fill="#10AC84"/>
<path d="M584.48 472H0.941066C0.691943 471.999 0.453275 471.9 0.277372 471.723C0.10147 471.547 0.00268555 471.308 0.00268555 471.059C0.00268555 470.81 0.10147 470.571 0.277372 470.395C0.453275 470.218 0.691943 470.119 0.941066 470.118H584.48C584.729 470.118 584.969 470.217 585.145 470.394C585.322 470.57 585.421 470.809 585.421 471.059C585.421 471.309 585.322 471.548 585.145 471.724C584.969 471.901 584.729 472 584.48 472Z" fill="#10AC84"/>
</g>
<defs>
<clipPath id="clip0">
<rect width="585.421" height="472" fill="white"/>
</clipPath>
</defs>
</svg>
