<svg width="861" height="441" viewBox="0 0 861 441" fill="none" xmlns="http://www.w3.org/2000/svg">
<g clip-path="url(#clip0)">
<path d="M428.608 108.833L428.586 108.983L428.524 109.418L422.197 154.822L383.454 169.037L382.847 168.747L361.156 158.445L349.94 115.411L349.172 112.456L349.406 112.367L397.39 94.3389L428.58 108.816L428.608 108.833Z" fill="#F78A25"/>
<path d="M382.847 168.747L361.156 158.446L349.172 112.457L349.406 112.367L380.668 125.556L382.847 168.747Z" fill="#FFA034"/>
<path opacity="0.2" d="M383.391 168.222L366.892 136.603L369.011 127.64L359.031 115.887L358.181 116.609L367.796 127.932L360.614 158.317L361.699 158.574L366.5 138.262L382.402 168.737L383.391 168.222Z" fill="black"/>
<path d="M428.608 109.39L428.524 109.418L380.668 126.114L349.94 115.411L349.172 112.456L349.406 112.367L397.39 94.3389L428.58 108.816L428.586 108.983L428.608 109.39Z" fill="#3F3D56"/>
<path d="M381.503 126.95L371.748 119.425L373.978 111.063L401.85 101.028L420.803 102.143L428.329 108.554L428.886 110.226L381.503 126.95Z" fill="#FFA034"/>
<path d="M349.729 112.456L371.748 111.62L383.676 107.571L402.274 101.028L405.752 96.0117L397.074 94.4581L349.729 112.456Z" fill="#FFA034"/>
<path d="M393.599 103.486L382.118 107.515L382.487 108.567L393.968 104.538L393.599 103.486Z" fill="#CCCCCC"/>
<path d="M242.374 38.2938L236.992 65.205L262.109 84.0436L273.772 49.0581L242.374 38.2938Z" fill="#9F616A"/>
<path d="M262.558 62.9627C275.935 62.9627 286.779 52.1188 286.779 38.7421C286.779 25.3655 275.935 14.5215 262.558 14.5215C249.181 14.5215 238.337 25.3655 238.337 38.7421C238.337 52.1188 249.181 62.9627 262.558 62.9627Z" fill="#9F616A"/>
<path d="M210.08 222.258C210.191 230.072 244.224 317.04 239.499 328.364C232.05 335.979 216.028 376.506 209.182 387.317C208.286 387.316 203.801 400.772 203.801 400.772C203.801 400.772 214.565 417.816 226.227 410.64C240.891 376.152 277.614 356.917 278.263 311.967C280.035 326.166 285.268 417.311 285.268 417.311C285.268 417.311 284.264 417.737 306.857 419.902C310.364 367.002 324.698 277.004 292.608 220.463C282.742 215.978 210.08 222.258 210.08 222.258Z" fill="#2F2E41"/>
<path d="M285.266 415.537C284.218 417.554 276.697 436.17 283.541 438.037C291.434 440.189 299.085 437.173 299.085 437.173C299.085 437.173 312.902 441.491 321.358 436.003C325.304 432.057 324.407 428.469 322.524 425.868C321.567 424.587 320.342 423.53 318.934 422.771C317.526 422.012 315.969 421.57 314.373 421.475C310.082 421.169 308.719 420.373 308.228 418.407C307.51 415.537 285.266 415.537 285.266 415.537Z" fill="#2F2E41"/>
<path d="M211.455 399.281C211.455 399.281 192.175 405.369 196.234 412.472C198.87 416.875 202.719 420.424 207.32 422.696C207.32 422.696 211.341 439.273 222.504 439.273C228.085 439.273 229.987 436.102 230.495 432.931C230.724 431.348 230.605 429.734 230.146 428.202C229.688 426.67 228.9 425.256 227.838 424.06C225.02 420.81 224.619 419.284 225.662 417.546C227.184 415.009 211.455 399.281 211.455 399.281Z" fill="#2F2E41"/>
<path d="M297.099 224.884C297.099 224.884 293.506 232.06 279.154 229.366C264.801 226.68 208.29 229.366 208.29 229.366C208.29 229.366 211.425 165.229 204.248 126.654C197.072 88.0782 225.328 66.1006 225.328 66.1006L234.3 57.1282C243.273 56.2387 262.219 84.0799 262.219 84.0799C268.454 85.1248 274.275 111.628 279.24 136.705C279.534 138.139 279.81 139.555 280.086 140.971C282.375 152.664 285.561 165.678 287.47 177.362C287.608 178.191 287.738 179.011 287.858 179.832C290.127 195.004 293.212 210.043 297.099 224.884Z" fill="#E6E6E6"/>
<path d="M234.223 23.661C234.223 23.661 229.695 13.6985 241.469 9.17005C241.469 9.17005 251.431 -7.13227 271.356 3.73596C271.356 3.73596 284.941 9.17005 284.941 23.661C284.941 38.1519 289.47 40.869 289.47 40.869C289.47 40.869 282.726 33.9507 280.915 28.5166C279.103 23.0825 265.016 21.8497 259.582 27.2838C254.148 32.7179 240.563 31.8122 240.563 31.8122L241.469 51.7372C241.469 51.7372 236.94 39.9633 235.129 39.9633C233.317 39.9633 231.506 23.661 234.223 23.661Z" fill="#2F2E41"/>
<path opacity="0.2" d="M287.47 177.362C266.071 165.73 231.408 140.22 220.224 126.42C205.483 108.242 221.563 94.4254 221.563 94.4254C239.793 82.9227 261.589 122.388 261.589 122.388L279.24 136.705C279.534 138.139 279.81 139.555 280.087 140.971C282.375 152.664 285.562 165.678 287.47 177.362Z" fill="black"/>
<path d="M351.351 163.957C351.351 163.957 383.164 176.872 388.4 162.354C393.637 147.836 363.283 148.085 363.283 148.085L351.367 149.773L351.351 163.957Z" fill="#9F616A"/>
<path d="M217.485 88.5175C217.485 88.5175 201.413 102.343 216.144 120.514C230.874 138.686 298.572 177.513 298.572 177.513L342.668 165.592L355.147 167.876L357.5 144.447L339.116 146.242L292.448 136.305L262.689 112.159C262.689 112.159 235.71 77.021 217.485 88.5175Z" fill="#E6E6E6"/>
<path opacity="0.2" d="M276.034 255.063L278.846 320.764L271.716 255.063H276.034Z" fill="black"/>
<path d="M579.607 208.065L554.082 213.98C552.107 214.437 550.032 214.107 548.297 213.059C546.562 212.011 545.304 210.327 544.791 208.367C544.493 207.23 544.457 206.04 544.684 204.887C544.912 203.733 545.397 202.647 546.105 201.708C546.812 200.769 547.723 200.003 548.768 199.466C549.814 198.929 550.968 198.636 552.143 198.609L576.799 198.035L579.607 208.065Z" fill="#FFB9B9"/>
<path d="M576.897 211.811L571.228 194.804L605.214 183.196L596.194 103.76C612.434 106.713 620.163 119.484 619.439 135.975L623.836 190.179L576.897 211.811Z" fill="#3F3D56"/>
<path d="M600.379 86.2472H655.904V58.6343C655.924 51.1768 653.001 44.0124 647.772 38.696C645.218 36.0768 642.164 33.9963 638.792 32.5774C635.42 31.1586 631.798 30.4303 628.139 30.4355C620.833 30.449 613.826 33.3374 608.633 38.4762C603.44 43.615 600.477 50.5913 600.387 57.8968C600.383 58.1497 600.379 58.3899 600.379 58.6344L600.379 86.2472Z" fill="#2F2E41"/>
<path d="M679.121 410.736L661.371 408.699L640.13 265.25L596.194 409.281L576.99 409.863L598.812 232.661L595.612 192.216L650.024 175.049C688.562 201.951 687.764 296.973 679.121 410.736Z" fill="#2F2E41"/>
<path d="M623.254 80.7737C634.824 80.7737 644.204 71.394 644.204 59.8237C644.204 48.2533 634.824 38.8737 623.254 38.8737C611.684 38.8737 602.304 48.2533 602.304 59.8237C602.304 71.394 611.684 80.7737 623.254 80.7737Z" fill="#FFB9B9"/>
<path d="M644.204 97.6501L608.705 106.961C614.686 95.4593 616.6 84.7223 613.361 74.9542L638.385 70.8806C636.776 80.2209 638.863 89.8205 644.204 97.6501Z" fill="#FFB9B9"/>
<path d="M656.134 182.905C636.224 195.567 613.03 210.113 595.903 195.999L587.755 156.426C581.28 150.659 584.151 132.861 592.905 107.493C593.461 105.883 594.377 104.42 595.582 103.216C596.787 102.013 598.251 101.099 599.862 100.545L613.361 95.9042C619.344 100.935 629.151 97.9346 640.712 91.2486L654.097 94.7403L659.916 138.386C651.516 150.972 652.983 167.731 656.134 182.905Z" fill="#3F3D56"/>
<path d="M639.547 199.918L614.022 205.833C612.047 206.29 609.972 205.96 608.237 204.912C606.502 203.863 605.245 202.18 604.731 200.219C604.433 199.082 604.397 197.893 604.624 196.739C604.852 195.586 605.337 194.499 606.045 193.561C606.752 192.622 607.663 191.855 608.708 191.319C609.754 190.782 610.908 190.489 612.083 190.462L636.739 189.888L639.547 199.918Z" fill="#FFB9B9"/>
<path d="M676.035 438.162C673.054 439.522 670.557 431.09 668.043 433.561C661.009 440.473 644.136 438.924 644.136 438.924C643.57 438.742 643.046 438.446 642.597 438.056C642.148 437.666 641.783 437.188 641.524 436.652C641.265 436.117 641.117 435.534 641.09 434.94C641.063 434.345 641.156 433.751 641.365 433.194C641.615 432.527 642.023 431.931 642.555 431.457C643.086 430.983 643.725 430.645 644.416 430.473L651.896 428.603L663.641 407.948L676.44 406.328L676.764 406.856C679.238 410.845 680.834 415.315 681.443 419.968C682.053 424.622 681.664 429.352 680.3 433.843C679.236 437.253 677.787 437.362 676.035 438.162Z" fill="#2F2E41"/>
<path d="M591.654 438.162C588.673 439.522 586.176 431.09 583.661 433.561C576.627 440.473 559.755 438.924 559.755 438.924C559.188 438.742 558.664 438.446 558.215 438.056C557.766 437.666 557.401 437.188 557.142 436.652C556.883 436.117 556.735 435.534 556.708 434.94C556.681 434.345 556.774 433.751 556.983 433.194C557.233 432.527 557.642 431.931 558.173 431.457C558.704 430.983 559.343 430.645 560.034 430.473L567.514 428.603L579.259 407.948L592.059 406.328L592.382 406.856C594.856 410.845 596.452 415.315 597.062 419.968C597.671 424.622 597.282 429.352 595.918 433.843C594.854 437.253 593.405 437.362 591.654 438.162Z" fill="#2F2E41"/>
<path d="M647.814 42.3496L642.537 59.1369L596.919 58.3261C597.075 52.4527 599.061 46.7746 602.601 42.085C606.141 37.3955 611.057 33.9287 616.663 32.169C622.269 30.4093 628.284 30.4445 633.869 32.2697C639.454 34.0949 644.329 37.6189 647.814 42.3496H647.814Z" fill="#2F2E41"/>
<path d="M636.837 203.664L631.168 186.657L665.154 175.049L652.298 93.8918C660.151 95.3197 667.222 99.544 672.2 105.783C677.179 112.022 679.729 119.853 679.379 127.827L683.776 182.032L636.837 203.664Z" fill="#3F3D56"/>
<path d="M555.663 157.814L520.315 165.416L513.093 130.638L526.396 112.773L538.369 110.493L551.672 123.986L555.663 157.814Z" fill="#CCCCCC"/>
<path d="M539.319 159.331H518.033L515.131 145.004L511.953 129.304L516.703 122.465L525.831 125.315L535.71 139.002L538.188 152.949L538.361 153.942L539.319 159.331Z" fill="#E6E6E6"/>
<path d="M575.048 150.972L550.532 153.823L554.903 122.656L564.785 113.723L573.337 115.814L579.039 128.927L575.048 150.972Z" fill="#CCCCCC"/>
<path d="M578.275 132.534L575.995 145.082L568.586 187.837L540.079 196.965L539.095 196.429L523.732 188.027L515.088 144.987L515.131 145.004L537.99 154.201L538.188 152.949L538.326 152.042L540.079 140.902L547.869 132.534L573.905 126.265L578.275 132.534Z" fill="#FFA034"/>
<path d="M560.224 131.208C563.583 131.208 566.306 128.485 566.306 125.126C566.306 121.768 563.583 119.045 560.224 119.045C556.866 119.045 554.143 121.768 554.143 125.126C554.143 128.485 556.866 131.208 560.224 131.208Z" fill="#FFA034"/>
<path d="M545.272 128.265L531.399 130.735L531.466 131.11L545.339 128.639L545.272 128.265Z" fill="white"/>
<path d="M539.095 196.429L523.732 188.027L515.088 144.987L515.131 145.004L511.953 129.304L516.703 122.465L525.831 125.315L535.71 139.002L538.188 152.949L538.326 152.042L538.361 153.942L538.456 159.331L539.095 196.429Z" fill="#FFA034"/>
<path d="M523.92 188.08L523.552 187.982L531.13 159.566L522.453 148.126L522.756 147.896L531.545 159.484L523.92 188.08Z" fill="#CCCCCC"/>
<path d="M528.198 171.858L527.855 172.022L539.908 197.046L540.251 196.881L528.198 171.858Z" fill="#CCCCCC"/>
<path opacity="0.2" d="M576.779 142.478L575.352 150.363L575.28 150.37L568.89 187.231L540.384 196.353L540.213 196.435L540.099 196.198L524.04 187.421L523.856 187.372L523.954 186.999L515.393 144.376L515.437 144.393L514.488 139.714L515.197 138.694L517.388 135.539L526.51 138.39L536.393 152.073L536.537 152.886L537.575 158.725L537.991 161.07L538.871 166.024L539.707 160.701L540.008 158.785L540.764 153.974L548.556 145.612L552.02 144.777L554.432 144.196L557.75 143.398C556.721 142.772 555.901 141.855 555.393 140.763C554.886 139.671 554.714 138.453 554.9 137.263C555.086 136.073 555.62 134.965 556.437 134.079C557.253 133.194 558.313 132.57 559.484 132.288C560.655 132.006 561.883 132.078 563.013 132.495C564.143 132.911 565.124 133.654 565.831 134.629C566.538 135.604 566.94 136.766 566.986 137.97C567.031 139.173 566.719 140.363 566.087 141.389L574.592 139.34L576.688 142.348L576.779 142.478Z" fill="black"/>
<path d="M540.003 174.308H518.718L512.637 144.281L517.388 137.439L526.51 140.29L536.393 153.973L540.003 174.308Z" fill="#E6E6E6"/>
<path d="M569.27 202.815L540.763 211.937L524.42 203.005L515.773 159.96L538.673 169.177L540.763 155.874L548.555 147.512L574.592 141.241L578.963 147.512L576.682 160.055L569.27 202.815Z" fill="#F78A25"/>
<path d="M560.908 146.182C564.267 146.182 566.99 143.459 566.99 140.1C566.99 136.742 564.267 134.019 560.908 134.019C557.55 134.019 554.827 136.742 554.827 140.1C554.827 143.459 557.55 146.182 560.908 146.182Z" fill="#FFA034"/>
<path d="M539.794 211.11L524.432 202.707L515.787 159.667L515.831 159.685L512.653 143.985L517.402 137.146L526.53 139.995L536.409 153.683L538.888 167.629L539.026 166.723L539.06 168.622L539.155 174.011L539.794 211.11Z" fill="#FFA034"/>
<path d="M524.604 203.054L524.237 202.956L531.814 174.539L523.136 163.099L523.439 162.87L532.23 174.458L524.604 203.054Z" fill="#CCCCCC"/>
<path d="M528.882 186.832L528.54 186.996L540.593 212.02L540.935 211.855L528.882 186.832Z" fill="#CCCCCC"/>
<path d="M778.462 401.638L743.114 409.239L735.892 374.461L749.195 356.597L761.168 354.316L774.471 367.809L778.462 401.638Z" fill="#CCCCCC"/>
<path d="M762.118 403.154H740.832L737.93 388.827L734.752 373.128L739.502 366.288L748.63 369.138L758.509 382.826L760.987 396.772L761.16 397.765L762.118 403.154Z" fill="#E6E6E6"/>
<path d="M797.846 394.796L773.331 397.647L777.702 366.479L787.584 357.547L796.136 359.637L801.838 372.751L797.846 394.796Z" fill="#CCCCCC"/>
<path d="M801.074 376.358L798.794 388.905L791.385 431.66L762.878 440.788L761.894 440.253L746.531 431.85L737.887 388.81L737.93 388.827L760.789 398.024L760.987 396.772L761.125 395.865L762.878 384.726L770.668 376.358L796.704 370.088L801.074 376.358Z" fill="#FFA034"/>
<path d="M783.023 375.031C786.382 375.031 789.105 372.309 789.105 368.95C789.105 365.591 786.382 362.868 783.023 362.868C779.665 362.868 776.942 365.591 776.942 368.95C776.942 372.309 779.665 375.031 783.023 375.031Z" fill="#E6E6E6"/>
<path d="M768.071 372.089L754.198 374.559L754.265 374.933L768.138 372.463L768.071 372.089Z" fill="white"/>
<path d="M761.894 440.253L746.531 431.85L737.887 388.81L737.93 388.827L734.752 373.128L739.502 366.288L748.63 369.138L758.509 382.826L760.987 396.772L761.125 395.865L761.16 397.765L761.255 403.154L761.894 440.253Z" fill="#F78A25"/>
<path d="M746.719 431.904L746.351 431.806L753.929 403.389L745.251 391.949L745.555 391.719L754.344 403.307L746.719 431.904Z" fill="#CCCCCC"/>
<path d="M750.997 415.681L750.654 415.846L762.707 440.869L763.05 440.704L750.997 415.681Z" fill="#CCCCCC"/>
<path d="M848.311 437.472H824.994L821.54 392.567H851.765L848.311 437.472Z" fill="#F55F44"/>
<path d="M852.196 410.702H821.108V417.61H852.196V410.702Z" fill="#F2F2F2"/>
<path d="M860.185 395.79L855.214 394.326L855.15 392.507L833.06 386L832.02 387.494L827.05 386.03L823.929 390.512L860.377 401.249L860.185 395.79Z" fill="#CCCCCC"/>
<path d="M128.952 380.795L128.93 380.946L128.869 381.381L122.541 426.785L83.7985 441L83.1915 440.71L61.5005 430.409L50.2846 387.373L49.516 384.419L49.75 384.33L97.7347 366.302L128.924 380.779L128.952 380.795Z" fill="#F78A25"/>
<path d="M83.1915 440.71L61.5005 430.409L49.516 384.419L49.75 384.33L81.0118 397.519L83.1915 440.71Z" fill="#FFA034"/>
<path opacity="0.2" d="M83.7352 440.184L67.236 408.566L69.3552 399.603L59.375 387.85L58.5253 388.572L68.1402 399.895L60.9579 430.28L62.0434 430.536L66.844 410.225L82.7465 440.701L83.7352 440.184Z" fill="black"/>
<path d="M128.952 381.353L128.869 381.381L81.0118 398.076L50.2846 387.373L49.516 384.419L49.75 384.33L97.7347 366.302L128.924 380.779L128.93 380.946L128.952 381.353Z" fill="#3F3D56"/>
<path d="M81.8476 398.913L72.0919 391.387L74.3216 383.025L102.194 372.991L121.147 374.106L128.673 380.517L129.23 382.189L81.8476 398.913Z" fill="#FFA034"/>
<path d="M50.0728 384.419L72.0919 383.583L84.0202 379.534L102.618 372.991L106.096 367.974L97.4175 366.421L50.0728 384.419Z" fill="#FFA034"/>
<path d="M93.9426 375.449L82.4615 379.478L82.8306 380.53L94.3117 376.501L93.9426 375.449Z" fill="#CCCCCC"/>
<path d="M31.0883 438.505H7.77212L4.31787 393.599H34.5425L31.0883 438.505Z" fill="#FE4B20"/>
<path d="M34.9743 411.734H3.88611V418.643H34.9743V411.734Z" fill="#E6E6E6"/>
<path d="M36.2696 391.009H31.0882L30.5122 389.282H7.48449L6.9085 391.009H1.72712L0 396.19H37.9967L36.2696 391.009Z" fill="#3F3D56"/>
<path d="M698.05 437.975H174.649V439.702H698.05V437.975Z" fill="#3F3D56"/>
</g>
<defs>
<clipPath id="clip0">
<rect width="860.377" height="441" fill="white"/>
</clipPath>
</defs>
</svg>
