<svg width="1001" height="717" viewBox="0 0 1001 717" fill="none" xmlns="http://www.w3.org/2000/svg">
<g clip-path="url(#clip0)">
<g opacity="0.7">
<path opacity="0.7" d="M761.724 401.768C761.784 383.649 757.446 365.786 749.082 349.713C745.111 342.165 741.49 337.473 738.671 334.595C737.608 333.468 736.22 332.7 734.7 332.4C733.181 332.1 731.605 332.283 730.194 332.922C729.066 333.32 728.047 333.977 727.219 334.84C723.449 338.744 720.043 343.905 717.068 349.401C708.269 365.849 703.703 384.229 703.78 402.883V414.082H696.596V283.945C696.596 256.669 690.491 229.756 678.533 205.863C672.867 194.553 667.698 187.525 663.72 183.205C662.756 182.106 661.569 181.226 660.238 180.623C658.907 180.021 657.462 179.709 656.001 179.709C654.54 179.709 653.095 180.021 651.764 180.623C650.433 181.226 649.246 182.106 648.282 183.205C642.898 189.057 638.042 196.791 633.796 205.016C621.221 229.4 614.833 257.07 614.833 285.158V414.082H608.624V402.348C608.701 383.694 604.134 365.314 595.335 348.865C592.36 343.377 588.954 338.216 585.184 334.305C584.099 333.162 582.679 332.393 581.128 332.11C579.578 331.826 577.977 332.043 576.558 332.728L576.818 332.869C575.908 333.272 575.084 333.848 574.394 334.565C571.605 337.443 567.984 342.135 563.983 349.683C555.619 365.756 551.281 383.619 551.341 401.738V596.304H573.502L571.085 612.299V660.123H589.2V612.299L586.783 596.304H608.624V419.117H614.833V595.508H632.532L629.988 612.292V660.123H648.111V612.299L645.568 595.515H669.416L666.873 612.299V660.123H684.995V612.299L682.452 595.515H696.581V419.117H703.765V596.571H709.587V596.304H728.84L726.423 612.299V660.123H744.546V612.299L742.129 596.304H761.724V401.768Z" fill="url(#paint0_linear)"/>
</g>
<path d="M592.806 602.974H575.651L578.714 582.145H589.743L592.806 602.974Z" fill="#EE4266"/>
<g opacity="0.1">
<path opacity="0.1" d="M577.859 590.414H590.598L589.742 584.591H578.714L577.859 590.414Z" fill="#EE4266"/>
</g>
<path d="M739.868 602.974H722.713L725.776 582.145H736.805L739.868 602.974Z" fill="#EE4266"/>
<g opacity="0.1">
<path opacity="0.1" d="M724.921 590.414H737.66L736.805 584.591H725.776L724.921 590.414Z" fill="#EE4266"/>
</g>
<path d="M648.572 602.974H631.409L634.472 582.145H645.508L648.572 602.974Z" fill="#EE4266"/>
<g opacity="0.1">
<path opacity="0.1" d="M633.617 590.414H646.363L645.508 584.591H634.472L633.617 590.414Z" fill="#EE4266"/>
</g>
<path d="M683.493 602.974H666.337L669.401 582.145H680.429L683.493 602.974Z" fill="#EE4266"/>
<g opacity="0.1">
<path opacity="0.1" d="M668.546 590.414H681.292L680.429 584.591H669.401L668.546 590.414Z" fill="#EE4266"/>
</g>
<path d="M715.358 409.955H592.806V414.856H715.358V409.955Z" fill="#EE4266"/>
<path d="M734.306 332.52C733.658 331.805 732.868 331.234 731.986 330.843C731.105 330.452 730.151 330.25 729.186 330.25C728.221 330.25 727.267 330.452 726.386 330.843C725.504 331.234 724.714 331.805 724.066 332.52C720.497 336.32 717.277 341.347 714.458 346.694C706.118 362.773 701.803 380.635 701.883 398.748V587.402H756.117V397.968C756.185 380.351 752.08 362.969 744.137 347.244C740.374 339.897 736.946 335.323 734.306 332.52Z" fill="#E0E0E0"/>
<path d="M578.789 332.52C579.436 331.805 580.227 331.234 581.108 330.843C581.99 330.452 582.944 330.25 583.909 330.25C584.873 330.25 585.827 330.452 586.709 330.843C587.591 331.234 588.381 331.805 589.029 332.52C592.598 336.32 595.818 341.347 598.637 346.694C606.977 362.773 611.292 380.635 611.211 398.748V587.402H556.963V397.968C556.895 380.351 561 362.969 568.943 347.244C572.698 339.897 576.127 335.323 578.789 332.52Z" fill="#E0E0E0"/>
<path d="M557.268 401.991L570.133 402.05V417.919H557.268V401.991Z" fill="#EE4266"/>
<path d="M598.324 401.991L611.189 402.05V417.919H598.324V401.991Z" fill="#EE4266"/>
<path d="M701.876 401.991L714.748 402.05V417.919H701.876V401.991Z" fill="#EE4266"/>
<path d="M742.932 401.991L755.805 402.05V417.919H742.932V401.991Z" fill="#EE4266"/>
<g opacity="0.1">
<path opacity="0.1" d="M598.614 346.448C595.803 341.102 592.576 336.075 589.006 332.275C587.998 331.16 586.652 330.407 585.175 330.129C583.698 329.851 582.171 330.064 580.826 330.735C581.601 331.122 582.301 331.643 582.894 332.275C586.463 336.075 589.683 341.102 592.501 346.448C600.842 362.527 605.157 380.39 605.076 398.503V587.142H611.204V398.525C611.283 380.403 606.963 362.533 598.614 346.448Z" fill="#EE4266"/>
</g>
<g opacity="0.1">
<path opacity="0.1" d="M719.337 346.969C722.147 341.622 725.375 336.595 728.944 332.795C729.613 332.076 730.42 331.499 731.317 331.1C729.991 330.519 728.516 330.37 727.102 330.675C725.687 330.979 724.404 331.721 723.434 332.795C719.865 336.595 716.645 341.622 713.826 346.969C705.486 363.048 701.171 380.91 701.251 399.024V587.663H706.769V399.053C706.682 380.931 710.994 363.058 719.337 346.969Z" fill="#EE4266"/>
</g>
<path d="M592.806 602.974H575.651V649.541H592.806V602.974Z" fill="url(#paint1_linear)"/>
<path d="M648.564 602.974H631.409V649.541H648.564V602.974Z" fill="url(#paint2_linear)"/>
<path d="M683.493 602.974H666.337V649.541H683.493V602.974Z" fill="url(#paint3_linear)"/>
<path d="M739.868 602.974H722.713V649.541H739.868V602.974Z" fill="url(#paint4_linear)"/>
<path d="M663.341 184.61C662.444 183.545 661.326 182.689 660.064 182.101C658.802 181.514 657.426 181.209 656.034 181.209C654.642 181.209 653.267 181.514 652.005 182.101C650.743 182.689 649.624 183.545 648.728 184.61C643.634 190.306 639.061 197.839 635.015 205.856C623.117 229.608 617.064 256.565 617.064 283.901V586.629H694.469V282.681C694.469 256.118 688.691 229.883 677.366 206.674C672.004 195.661 667.111 188.819 663.341 184.61Z" fill="#EEEEEE"/>
<path d="M667.245 218.237H643.218C638.7 218.237 635.038 221.9 635.038 226.417V228.567C635.038 233.084 638.7 236.747 643.218 236.747H667.245C671.762 236.747 675.425 233.084 675.425 228.567V226.417C675.425 221.9 671.762 218.237 667.245 218.237Z" fill="#EE4266"/>
<g opacity="0.7">
<path opacity="0.7" d="M836.088 644.454C833.548 629.139 825.33 615.344 813.072 605.818C800.815 596.292 785.417 591.735 769.95 593.055C754.482 594.375 740.079 601.475 729.613 612.94C719.147 624.405 713.385 639.393 713.477 654.917C713.477 655.222 713.477 655.519 713.477 655.824C711.194 656.17 708.934 656.654 706.71 657.274C703.861 645.93 697.555 635.752 688.666 628.149C679.777 620.547 668.744 615.896 657.095 614.842C645.446 613.787 633.757 616.38 623.647 622.263C613.537 628.145 605.506 637.026 600.667 647.674C595.678 645.75 590.439 644.553 585.11 644.119C584.26 639.294 582.834 634.588 580.864 630.102C579.938 615.948 573.711 602.662 563.424 592.896C553.136 583.131 539.545 577.603 525.362 577.415C511.178 577.227 497.446 582.394 486.903 591.884C476.361 601.374 469.784 614.49 468.485 628.615C465.565 634.798 463.7 641.426 462.967 648.224C450.058 653.595 439.603 663.567 433.628 676.207C427.653 688.847 426.583 703.255 430.626 716.639H882.446C884.801 708.833 885.436 700.608 884.307 692.533C883.178 684.457 880.311 676.723 875.905 669.862C871.499 663.001 865.657 657.176 858.784 652.79C851.91 648.404 844.167 645.56 836.088 644.454Z" fill="url(#paint5_linear)"/>
</g>
<path d="M529.798 688.478C559.709 688.478 583.957 664.23 583.957 634.318C583.957 604.407 559.709 580.159 529.798 580.159C499.886 580.159 475.639 604.407 475.639 634.318C475.639 664.23 499.886 688.478 529.798 688.478Z" fill="url(#paint6_linear)"/>
<path d="M529.53 713.932C562.283 713.932 588.835 687.38 588.835 654.627C588.835 621.874 562.283 595.322 529.53 595.322C496.777 595.322 470.225 621.874 470.225 654.627C470.225 687.38 496.777 713.932 529.53 713.932Z" fill="url(#paint7_linear)"/>
<path d="M770.543 713.932C803.297 713.932 829.849 687.38 829.849 654.627C829.849 621.874 803.297 595.322 770.543 595.322C737.79 595.322 711.238 621.874 711.238 654.627C711.238 687.38 737.79 713.932 770.543 713.932Z" fill="url(#paint8_linear)"/>
<path d="M767.562 713.932C797.473 713.932 821.721 689.685 821.721 659.773C821.721 629.862 797.473 605.614 767.562 605.614C737.65 605.614 713.402 629.862 713.402 659.773C713.402 689.685 737.65 713.932 767.562 713.932Z" fill="url(#paint9_linear)"/>
<path d="M706.36 670.065C706.369 678.63 704.343 687.074 700.448 694.702C696.554 702.33 690.903 708.924 683.962 713.94H620.433C612.913 708.505 606.915 701.231 603.014 692.813C599.112 684.396 597.437 675.118 598.149 665.867C598.862 656.617 601.938 647.705 607.082 639.984C612.227 632.263 619.267 625.993 627.53 621.773C635.793 617.554 645.001 615.527 654.272 615.887C663.542 616.246 672.565 618.981 680.476 623.827C688.387 628.674 694.921 635.471 699.452 643.567C703.983 651.664 706.359 660.788 706.353 670.065H706.36Z" fill="url(#paint10_linear)"/>
<path d="M773.526 709.062C773.526 710.683 773.454 712.287 773.31 713.873C773.316 713.895 773.316 713.918 773.31 713.94H665.423C665.274 712.334 665.2 710.705 665.2 709.069C665.19 696.109 669.833 683.576 678.284 673.75C686.734 663.924 698.431 657.458 711.246 655.527C713.924 655.124 716.628 654.921 719.337 654.917C720.72 654.917 722.096 654.969 723.456 655.066C733.164 655.808 742.492 659.152 750.461 664.744C758.43 670.337 764.745 677.973 768.744 686.849C768.967 687.34 769.183 687.838 769.384 688.336C772.118 694.904 773.526 701.948 773.526 709.062Z" fill="url(#paint11_linear)"/>
<path d="M875.888 698.227C875.893 703.548 875.112 708.84 873.567 713.932H769.904C767.398 705.604 766.921 696.797 768.513 688.247C768.603 687.779 768.692 687.303 768.796 686.842C771.406 674.733 778.085 663.884 787.722 656.102C797.359 648.321 809.371 644.076 821.758 644.075C823.461 644.075 825.134 644.149 826.792 644.313C827.536 644.372 828.28 644.462 829.023 644.558C842.004 646.324 853.905 652.735 862.521 662.603C871.138 672.47 875.887 685.126 875.888 698.227Z" fill="url(#paint12_linear)"/>
<path d="M543.191 713.94C543.369 713.375 543.525 712.809 543.682 712.237C546.147 703.016 546.133 693.307 543.642 684.093C541.151 674.879 536.271 666.486 529.495 659.763C522.718 653.041 514.287 648.227 505.054 645.809C495.82 643.391 486.111 643.455 476.91 645.993C474.756 646.585 472.642 647.315 470.582 648.18C458.178 653.34 448.133 662.922 442.392 675.068C436.652 687.213 435.626 701.058 439.513 713.917H543.191V713.94Z" fill="url(#paint13_linear)"/>
<g opacity="0.7">
<path opacity="0.7" d="M855.304 602.55C860.79 602.55 865.239 598.102 865.239 592.615C865.239 587.128 860.79 582.68 855.304 582.68C849.817 582.68 845.369 587.128 845.369 592.615C845.369 598.102 849.817 602.55 855.304 602.55Z" fill="url(#paint14_linear)"/>
</g>
<path d="M855.304 601.821C860.388 601.821 864.51 597.7 864.51 592.615C864.51 587.531 860.388 583.409 855.304 583.409C850.219 583.409 846.097 587.531 846.097 592.615C846.097 597.7 850.219 601.821 855.304 601.821Z" fill="url(#paint15_linear)"/>
<g opacity="0.7">
<path opacity="0.7" d="M900.799 699.312C906.783 699.312 911.634 694.462 911.634 688.478C911.634 682.494 906.783 677.643 900.799 677.643C894.816 677.643 889.965 682.494 889.965 688.478C889.965 694.462 894.816 699.312 900.799 699.312Z" fill="url(#paint16_linear)"/>
</g>
<path d="M900.799 698.77C906.483 698.77 911.091 694.162 911.091 688.478C911.091 682.794 906.483 678.186 900.799 678.186C895.115 678.186 890.507 682.794 890.507 688.478C890.507 694.162 895.115 698.77 900.799 698.77Z" fill="url(#paint17_linear)"/>
<g opacity="0.7">
<path opacity="0.7" d="M437.185 638.639C443.76 638.639 449.091 633.309 449.091 626.733C449.091 620.158 443.76 614.828 437.185 614.828C430.61 614.828 425.279 620.158 425.279 626.733C425.279 633.309 430.61 638.639 437.185 638.639Z" fill="url(#paint18_linear)"/>
</g>
<path d="M437.185 638.104C443.465 638.104 448.555 633.013 448.555 626.733C448.555 620.454 443.465 615.363 437.185 615.363C430.905 615.363 425.815 620.454 425.815 626.733C425.815 633.013 430.905 638.104 437.185 638.104Z" fill="url(#paint19_linear)"/>
<g opacity="0.4">
<path opacity="0.4" d="M885.711 156.991C883.072 153.504 879.766 150.577 875.984 148.38C871.646 145.887 866.793 144.424 861.8 144.104C856.807 143.784 851.808 144.616 847.187 146.534C842.566 148.453 838.448 151.407 835.15 155.17C831.852 158.932 829.462 163.402 828.166 168.235C826.87 173.067 826.701 178.133 827.672 183.041C828.644 187.949 830.73 192.568 833.77 196.542C836.81 200.516 840.722 203.738 845.205 205.96C849.687 208.183 854.621 209.345 859.624 209.358C860.316 209.358 861.007 209.358 861.691 209.292C867.578 208.92 873.254 206.961 878.117 203.623C882.979 200.285 886.847 195.692 889.309 190.332C891.77 184.972 892.735 179.046 892.098 173.182C891.462 167.318 889.25 161.736 885.696 157.029L885.711 156.991Z" fill="url(#paint20_linear)"/>
</g>
<path opacity="0.2" d="M890.507 176.661C890.508 184.509 887.519 192.064 882.148 197.787C876.777 203.51 869.428 206.972 861.595 207.47C860.948 207.514 860.293 207.537 859.639 207.537C854.906 207.534 850.236 206.443 845.992 204.347C841.748 202.252 838.042 199.208 835.162 195.452C832.282 191.696 830.304 187.328 829.381 182.685C828.458 178.043 828.616 173.25 829.841 168.678C831.066 164.106 833.326 159.877 836.447 156.318C839.567 152.759 843.464 149.965 847.837 148.152C852.21 146.34 856.94 145.557 861.664 145.865C866.387 146.173 870.976 147.562 875.077 149.927C878.653 152.004 881.78 154.772 884.276 158.07C888.328 163.419 890.517 169.949 890.507 176.661Z" fill="#EE4266"/>
<path opacity="0.05" d="M852.039 157.081C850.444 157.769 848.905 158.579 847.436 159.505C846.455 160.049 845.612 160.813 844.974 161.736C844.663 162.199 844.492 162.742 844.481 163.3C844.471 163.858 844.621 164.407 844.915 164.881C845.659 165.908 847.146 166.071 848.388 166.138C849.529 166.381 850.714 166.316 851.822 165.95C852.93 165.584 853.921 164.93 854.694 164.056L857.349 161.647C858.271 160.814 859.282 159.661 858.881 158.486C858.576 157.586 857.564 157.148 856.65 156.999C854.368 156.55 852.001 156.966 850.009 158.166" fill="#EE4266"/>
<path opacity="0.05" d="M840.951 190.47C841.847 190.47 842.572 189.744 842.572 188.849C842.572 187.954 841.847 187.228 840.951 187.228C840.056 187.228 839.33 187.954 839.33 188.849C839.33 189.744 840.056 190.47 840.951 190.47Z" fill="#EE4266"/>
<path opacity="0.05" d="M873.991 184.513C877.281 184.513 879.948 181.847 879.948 178.557C879.948 175.267 877.281 172.6 873.991 172.6C870.702 172.6 868.035 175.267 868.035 178.557C868.035 181.847 870.702 184.513 873.991 184.513Z" fill="#EE4266"/>
<path opacity="0.05" d="M884.283 158.062C884.26 159.619 883.79 161.136 882.929 162.433C882.069 163.73 880.854 164.752 879.429 165.379C878.004 166.006 876.429 166.21 874.891 165.968C873.354 165.726 871.918 165.047 870.755 164.013C869.592 162.979 868.75 161.632 868.33 160.133C867.91 158.634 867.929 157.047 868.385 155.558C868.841 154.07 869.714 152.744 870.902 151.738C872.09 150.731 873.541 150.087 875.084 149.882C878.664 151.97 881.791 154.751 884.283 158.062Z" fill="#EE4266"/>
<path opacity="0.05" d="M884.878 194.441C882.223 198.22 878.751 201.353 874.721 203.608C870.69 205.863 866.204 207.183 861.595 207.47C861.558 207.046 861.535 206.614 861.535 206.183C861.536 203.474 862.29 200.817 863.712 198.511C865.134 196.205 867.169 194.339 869.589 193.121C872.01 191.904 874.721 191.382 877.421 191.615C880.12 191.848 882.702 192.827 884.878 194.441Z" fill="#EE4266"/>
<path opacity="0.25" d="M864.51 404.14C866.604 404.14 868.302 402.442 868.302 400.347C868.302 398.253 866.604 396.555 864.51 396.555C862.415 396.555 860.717 398.253 860.717 400.347C860.717 402.442 862.415 404.14 864.51 404.14Z" fill="#EE4266"/>
<path opacity="0.25" d="M358.835 503.788C360.93 503.788 362.628 502.09 362.628 499.995C362.628 497.9 360.93 496.202 358.835 496.202C356.741 496.202 355.043 497.9 355.043 499.995C355.043 502.09 356.741 503.788 358.835 503.788Z" fill="#EE4266"/>
<path opacity="0.25" d="M541.711 345.645C543.805 345.645 545.503 343.947 545.503 341.853C545.503 339.758 543.805 338.06 541.711 338.06C539.616 338.06 537.918 339.758 537.918 341.853C537.918 343.947 539.616 345.645 541.711 345.645Z" fill="#EE4266"/>
<path opacity="0.25" d="M529.255 258.446C531.35 258.446 533.048 256.748 533.048 254.653C533.048 252.559 531.35 250.861 529.255 250.861C527.16 250.861 525.462 252.559 525.462 254.653C525.462 256.748 527.16 258.446 529.255 258.446Z" fill="#EE4266"/>
<path opacity="0.25" d="M422.015 431.216C424.109 431.216 425.807 429.518 425.807 427.423C425.807 425.329 424.109 423.631 422.015 423.631C419.92 423.631 418.222 425.329 418.222 427.423C418.222 429.518 419.92 431.216 422.015 431.216Z" fill="#EE4266"/>
<path opacity="0.25" d="M958.483 431.877H955.107V428.509H953.732V431.877H950.355V433.261H953.732V436.629H955.107V433.261H958.483V431.877Z" fill="#EE4266"/>
<path opacity="0.25" d="M774.336 249.902H770.96V246.526H769.584V249.902H766.208V251.277H769.584V254.653H770.96V251.277H774.336V249.902Z" fill="#EE4266"/>
<path opacity="0.25" d="M921.651 412.922H918.275V409.553H916.899V412.922H913.531V414.305H916.899V417.674H918.275V414.305H921.651V412.922Z" fill="#EE4266"/>
<path opacity="0.25" d="M798.162 525.033H794.794V521.665H793.418V525.033H790.042V526.416H793.418V529.785H794.794V526.416H798.162V525.033Z" fill="#EE4266"/>
<path opacity="0.25" d="M452.623 293.769H449.247V290.4H447.871V293.769H444.495V295.145H447.871V298.521H449.247V295.145H452.623V293.769Z" fill="#EE4266"/>
<path opacity="0.25" d="M335.128 337.644H331.752V334.275H330.376V337.644H327V339.019H330.376V342.395H331.752V339.019H335.128V337.644Z" fill="#EE4266"/>
<path opacity="0.25" d="M499.197 475.752H495.821V472.376H494.445V475.752H491.077V477.128H494.445V480.504H495.821V477.128H499.197V475.752Z" fill="#EE4266"/>
<path d="M900.799 698.77C906.483 698.77 911.091 694.162 911.091 688.478C911.091 682.794 906.483 678.186 900.799 678.186C895.115 678.186 890.507 682.794 890.507 688.478C890.507 694.162 895.115 698.77 900.799 698.77Z" fill="url(#paint21_linear)"/>
<g opacity="0.4">
<path opacity="0.4" d="M527.009 403.024C525.753 401.362 524.178 399.967 522.376 398.919C520.31 397.717 517.995 397.007 515.61 396.844C513.225 396.681 510.834 397.07 508.624 397.981C506.414 398.891 504.443 400.299 502.865 402.095C501.287 403.89 500.143 406.026 499.524 408.335C498.905 410.643 498.826 413.064 499.294 415.409C499.762 417.753 500.763 419.958 502.221 421.852C503.679 423.747 505.554 425.28 507.701 426.333C509.847 427.385 512.207 427.929 514.598 427.921C514.925 427.921 515.26 427.921 515.579 427.921C518.382 427.742 521.083 426.808 523.397 425.218C525.711 423.627 527.552 421.44 528.724 418.888C529.896 416.337 530.355 413.515 530.053 410.724C529.751 407.932 528.699 405.274 527.009 403.032V403.024Z" fill="url(#paint22_linear)"/>
</g>
<path opacity="0.2" d="M529.292 412.394C529.292 416.132 527.868 419.73 525.31 422.456C522.751 425.181 519.251 426.83 515.52 427.066C515.215 427.066 514.903 427.066 514.59 427.066C512.337 427.064 510.113 426.543 508.093 425.545C506.072 424.547 504.308 423.097 502.937 421.308C501.566 419.519 500.624 417.439 500.185 415.228C499.746 413.018 499.821 410.735 500.405 408.558C500.988 406.381 502.064 404.368 503.55 402.673C505.036 400.978 506.892 399.647 508.974 398.784C511.056 397.921 513.308 397.548 515.557 397.694C517.807 397.84 519.992 398.501 521.945 399.626C523.647 400.615 525.136 401.932 526.325 403.5C528.263 406.059 529.306 409.184 529.292 412.394Z" fill="#EE4266"/>
<path opacity="0.1" d="M510.969 403.069C510.196 403.394 509.45 403.78 508.738 404.222C508.271 404.477 507.869 404.835 507.563 405.27C507.421 405.492 507.346 405.75 507.346 406.014C507.346 406.277 507.421 406.535 507.563 406.757C507.779 406.97 508.039 407.133 508.323 407.235C508.608 407.338 508.912 407.378 509.214 407.352C509.753 407.463 510.311 407.429 510.833 407.256C511.356 407.082 511.823 406.774 512.188 406.363L513.453 405.218C513.891 404.817 514.375 404.274 514.196 403.731C514.097 403.525 513.946 403.349 513.758 403.219C513.571 403.089 513.353 403.009 513.125 402.987C512.039 402.775 510.913 402.973 509.965 403.545" fill="#EE4266"/>
<path opacity="0.1" d="M505.689 418.968C506.116 418.968 506.462 418.622 506.462 418.195C506.462 417.767 506.116 417.421 505.689 417.421C505.262 417.421 504.916 417.767 504.916 418.195C504.916 418.622 505.262 418.968 505.689 418.968Z" fill="#EE4266"/>
<path opacity="0.1" d="M521.424 416.135C522.993 416.135 524.265 414.863 524.265 413.294C524.265 411.725 522.993 410.453 521.424 410.453C519.856 410.453 518.584 411.725 518.584 413.294C518.584 414.863 519.856 416.135 521.424 416.135Z" fill="#EE4266"/>
<path opacity="0.1" d="M526.325 403.567C526.316 404.308 526.094 405.03 525.685 405.649C525.277 406.267 524.7 406.755 524.023 407.055C523.345 407.354 522.596 407.453 521.864 407.339C521.132 407.225 520.448 406.903 519.894 406.412C519.339 405.921 518.938 405.28 518.737 404.567C518.536 403.854 518.544 403.099 518.76 402.39C518.976 401.682 519.391 401.05 519.955 400.57C520.52 400.091 521.211 399.784 521.945 399.685C523.648 400.676 525.136 401.996 526.325 403.567Z" fill="#EE4266"/>
<path opacity="0.1" d="M526.615 420.864C525.351 422.665 523.698 424.158 521.779 425.232C519.859 426.307 517.723 426.937 515.527 427.074C515.527 426.873 515.527 426.665 515.527 426.456C515.523 425.16 515.881 423.888 516.56 422.784C517.239 421.679 518.213 420.786 519.372 420.205C520.532 419.624 521.83 419.378 523.121 419.494C524.412 419.611 525.646 420.085 526.682 420.864H526.615Z" fill="#EE4266"/>
<g opacity="0.1">
<path opacity="0.1" d="M694.053 294.252H617.458V297.227H694.053V294.252Z" fill="#EE4266"/>
</g>
</g>
<g opacity="0.7">
<path opacity="0.7" d="M544.669 322.733C544.744 300.048 539.308 277.683 528.83 257.559C523.854 248.109 519.317 242.234 515.786 238.631C514.454 237.219 512.715 236.259 510.811 235.883C508.906 235.508 506.932 235.736 505.164 236.536C503.751 237.034 502.474 237.857 501.437 238.938C496.714 243.826 492.446 250.288 488.719 257.168C477.695 277.762 471.973 300.775 472.07 324.13V338.152H463.069V175.216C463.069 141.065 455.42 107.37 440.438 77.4549C433.339 63.2935 426.863 54.495 421.879 49.0855C420.671 47.7104 419.184 46.6086 417.516 45.8538C415.848 45.0989 414.038 44.7085 412.207 44.7085C410.377 44.7085 408.567 45.0989 406.899 45.8538C405.231 46.6086 403.744 47.7104 402.536 49.0855C395.791 56.413 389.707 66.096 384.386 76.3935C368.631 106.923 360.628 141.568 360.628 176.734V338.152H352.848V323.46C352.945 300.104 347.223 277.092 336.198 256.498C332.472 249.627 328.204 243.165 323.481 238.268C322.121 236.836 320.341 235.874 318.399 235.519C316.456 235.165 314.451 235.436 312.673 236.294L312.999 236.471C311.858 236.975 310.826 237.696 309.961 238.593C306.468 242.197 301.93 248.072 296.917 257.522C286.439 277.646 281.003 300.011 281.078 322.696V566.299H308.843L305.815 586.326V646.202H328.512V586.326L325.484 566.299H352.848V344.455H360.628V565.302H382.803L379.616 586.316V646.202H402.322V586.326L399.135 565.312H429.015L425.829 586.326V646.202H448.535V586.326L445.348 565.312H463.051V344.455H472.051V566.634H479.346V566.299H503.468L500.44 586.326V646.202H523.146V586.326L520.118 566.299H544.669V322.733Z" fill="url(#paint23_linear)"/>
</g>
<path d="M333.031 574.65H311.536L315.375 548.571H329.192L333.031 574.65Z" fill="#10AC84"/>
<g opacity="0.1">
<path opacity="0.1" d="M314.303 558.925H330.263L329.192 551.634H315.375L314.303 558.925Z" fill="#10AC84"/>
</g>
<path d="M517.286 574.65H495.791L499.63 548.571H513.447L517.286 574.65Z" fill="#10AC84"/>
<g opacity="0.1">
<path opacity="0.1" d="M498.558 558.925H514.519L513.447 551.634H499.63L498.558 558.925Z" fill="#10AC84"/>
</g>
<path d="M402.9 574.65H381.396L385.234 548.571H399.061L402.9 574.65Z" fill="#10AC84"/>
<g opacity="0.1">
<path opacity="0.1" d="M384.163 558.925H400.132L399.061 551.634H385.234L384.163 558.925Z" fill="#10AC84"/>
</g>
<path d="M446.653 574.65H425.158L428.997 548.571H442.814L446.653 574.65Z" fill="#10AC84"/>
<g opacity="0.1">
<path opacity="0.1" d="M427.925 558.925H443.895L442.814 551.634H428.997L427.925 558.925Z" fill="#10AC84"/>
</g>
<path d="M486.576 332.984H333.031V339.12H486.576V332.984Z" fill="#10AC84"/>
<path d="M510.316 236.033C509.505 235.138 508.515 234.423 507.41 233.933C506.305 233.443 505.11 233.191 503.902 233.191C502.693 233.191 501.498 233.443 500.393 233.933C499.288 234.423 498.298 235.138 497.487 236.033C493.015 240.791 488.98 247.085 485.449 253.779C475 273.911 469.593 296.275 469.694 318.953V555.154H537.644V317.976C537.729 295.919 532.585 274.156 522.634 254.468C517.919 245.269 513.624 239.543 510.316 236.033Z" fill="#E0E0E0"/>
<path d="M315.468 236.033C316.279 235.138 317.269 234.423 318.374 233.933C319.479 233.443 320.674 233.191 321.883 233.191C323.091 233.191 324.286 233.443 325.391 233.933C326.496 234.423 327.486 235.138 328.298 236.033C332.77 240.791 336.804 247.085 340.335 253.779C350.785 273.911 356.191 296.275 356.09 318.953V555.154H288.122V317.976C288.037 295.919 293.18 274.156 303.132 254.468C307.837 245.269 312.132 239.543 315.468 236.033Z" fill="#E0E0E0"/>
<path d="M288.504 323.013L304.623 323.087V342.956H288.504V323.013Z" fill="#10AC84"/>
<path d="M339.944 323.013L356.062 323.087V342.956H339.944V323.013Z" fill="#10AC84"/>
<path d="M469.685 323.013L485.813 323.087V342.956H469.685V323.013Z" fill="#10AC84"/>
<path d="M521.125 323.013L537.252 323.087V342.956H521.125V323.013Z" fill="#10AC84"/>
<g opacity="0.1">
<path opacity="0.1" d="M340.307 253.472C336.785 246.777 332.742 240.484 328.27 235.726C327.006 234.331 325.32 233.388 323.47 233.04C321.619 232.692 319.705 232.958 318.021 233.798C318.992 234.283 319.869 234.935 320.611 235.726C325.083 240.484 329.117 246.777 332.649 253.472C343.098 273.603 348.504 295.968 348.404 318.646V554.828H356.081V318.674C356.18 295.985 350.768 273.61 340.307 253.472Z" fill="#10AC84"/>
</g>
<g opacity="0.1">
<path opacity="0.1" d="M491.561 254.124C495.083 247.429 499.127 241.135 503.599 236.378C504.436 235.477 505.447 234.755 506.571 234.255C504.91 233.528 503.063 233.342 501.29 233.723C499.517 234.104 497.91 235.033 496.695 236.378C492.223 241.135 488.188 247.429 484.657 254.124C474.208 274.255 468.801 296.619 468.902 319.298V555.48H475.815V319.335C475.706 296.645 481.109 274.267 491.561 254.124Z" fill="#10AC84"/>
</g>
<path d="M333.031 574.65H311.536V632.953H333.031V574.65Z" fill="url(#paint24_linear)"/>
<path d="M402.89 574.65H381.396V632.953H402.89V574.65Z" fill="url(#paint25_linear)"/>
<path d="M446.653 574.65H425.158V632.953H446.653V574.65Z" fill="url(#paint26_linear)"/>
<path d="M517.286 574.65H495.791V632.953H517.286V574.65Z" fill="url(#paint27_linear)"/>
<path d="M421.403 50.8452C420.28 49.5115 418.879 48.4393 417.298 47.7037C415.717 46.9682 413.994 46.587 412.249 46.587C410.505 46.587 408.782 46.9682 407.201 47.7037C405.619 48.4393 404.218 49.5115 403.095 50.8452C396.713 57.9772 390.983 67.4088 385.914 77.4456C371.007 107.184 363.423 140.935 363.423 175.16V554.186H460.405V173.633C460.405 140.376 453.165 107.528 438.975 78.4698C432.258 64.6808 426.127 56.115 421.403 50.8452Z" fill="#EEEEEE"/>
<path d="M426.295 92.9476H396.191C390.531 92.9476 385.943 97.533 385.943 103.189V105.88C385.943 111.536 390.531 116.122 396.191 116.122H426.295C431.955 116.122 436.544 111.536 436.544 105.88V103.189C436.544 97.533 431.955 92.9476 426.295 92.9476Z" fill="#10AC84"/>
<g opacity="0.7">
<path opacity="0.7" d="M637.84 626.585C634.657 607.41 624.361 590.138 609.003 578.211C593.646 566.284 574.354 560.578 554.975 562.231C535.595 563.884 517.55 572.773 504.437 587.128C491.323 601.483 484.104 620.249 484.219 639.685C484.219 640.067 484.219 640.439 484.219 640.821C481.359 641.254 478.527 641.86 475.741 642.636C472.172 628.432 464.271 615.689 453.134 606.17C441.997 596.652 428.174 590.829 413.578 589.509C398.983 588.189 384.338 591.436 371.671 598.801C359.004 606.166 348.942 617.284 342.879 630.616C336.629 628.207 330.064 626.708 323.387 626.166C322.323 620.124 320.537 614.232 318.067 608.615C316.908 590.894 309.106 574.26 296.217 562.033C283.327 549.806 266.299 542.885 248.529 542.649C230.758 542.414 213.552 548.883 200.344 560.765C187.135 572.647 178.895 589.068 177.267 606.753C173.609 614.495 171.272 622.793 170.354 631.305C154.181 638.03 141.082 650.514 133.595 666.34C126.109 682.166 124.768 700.206 129.834 716.963H695.922C698.873 707.189 699.669 696.892 698.254 686.781C696.839 676.67 693.247 666.986 687.727 658.396C682.206 649.805 674.887 642.513 666.275 637.022C657.663 631.53 647.961 627.969 637.84 626.585Z" fill="url(#paint28_linear)"/>
</g>
<path d="M254.087 681.703C291.563 681.703 321.943 651.344 321.943 613.894C321.943 576.444 291.563 546.085 254.087 546.085C216.611 546.085 186.23 576.444 186.23 613.894C186.23 651.344 216.611 681.703 254.087 681.703Z" fill="url(#paint29_linear)"/>
<path d="M253.751 713.574C294.788 713.574 328.055 680.33 328.055 639.322C328.055 598.313 294.788 565.07 253.751 565.07C212.714 565.07 179.447 598.313 179.447 639.322C179.447 680.33 212.714 713.574 253.751 713.574Z" fill="url(#paint30_linear)"/>
<path d="M555.719 713.574C596.756 713.574 630.023 680.33 630.023 639.322C630.023 598.313 596.756 565.07 555.719 565.07C514.682 565.07 481.415 598.313 481.415 639.322C481.415 680.33 514.682 713.574 555.719 713.574Z" fill="url(#paint31_linear)"/>
<path d="M551.983 713.574C589.459 713.574 619.839 683.215 619.839 645.765C619.839 608.315 589.459 577.955 551.983 577.955C514.506 577.955 484.126 608.315 484.126 645.765C484.126 683.215 514.506 713.574 551.983 713.574Z" fill="url(#paint32_linear)"/>
<path d="M475.303 658.65C475.314 669.374 472.775 679.946 467.896 689.496C463.017 699.047 455.937 707.303 447.24 713.583H367.644C358.223 706.779 350.708 697.671 345.819 687.132C340.931 676.593 338.832 664.976 339.725 653.394C340.617 641.813 344.471 630.654 350.917 620.987C357.362 611.321 366.184 603.47 376.536 598.187C386.889 592.905 398.425 590.367 410.041 590.817C421.656 591.267 432.961 594.691 442.873 600.759C452.785 606.828 460.971 615.338 466.648 625.474C472.325 635.611 475.301 647.034 475.293 658.65H475.303Z" fill="url(#paint33_linear)"/>
<path d="M559.455 707.475C559.455 709.505 559.365 711.513 559.185 713.499C559.192 713.527 559.192 713.556 559.185 713.583H424.012C423.826 711.572 423.733 709.533 423.733 707.485C423.721 691.258 429.538 675.567 440.126 663.264C450.713 650.962 465.368 642.866 481.424 640.448C484.78 639.944 488.168 639.689 491.561 639.685C493.294 639.685 495.018 639.75 496.723 639.871C508.885 640.801 520.572 644.986 530.557 651.988C540.541 658.991 548.454 668.551 553.464 679.665C553.744 680.279 554.014 680.903 554.265 681.527C557.692 689.749 559.456 698.568 559.455 707.475Z" fill="url(#paint34_linear)"/>
<path d="M687.705 693.91C687.712 700.572 686.733 707.198 684.798 713.574H554.918C551.777 703.147 551.18 692.12 553.175 681.415C553.287 680.828 553.399 680.232 553.529 679.655C556.799 664.495 565.168 650.912 577.242 641.169C589.316 631.426 604.367 626.111 619.886 626.11C622.019 626.11 624.116 626.203 626.193 626.408C627.125 626.482 628.057 626.594 628.989 626.715C645.252 628.926 660.163 636.953 670.959 649.307C681.754 661.662 687.704 677.508 687.705 693.91Z" fill="url(#paint35_linear)"/>
<path d="M270.867 713.583C271.091 712.875 271.286 712.168 271.482 711.451C274.571 699.906 274.554 687.75 271.433 676.214C268.311 664.677 262.197 654.169 253.707 645.752C245.217 637.336 234.653 631.309 223.085 628.281C211.516 625.254 199.352 625.333 187.824 628.512C185.124 629.252 182.476 630.166 179.895 631.249C164.354 637.71 151.768 649.707 144.576 664.914C137.384 680.121 136.098 697.454 140.968 713.555H270.867V713.583Z" fill="url(#paint36_linear)"/>
<g opacity="0.7">
<path opacity="0.7" d="M661.915 574.119C668.79 574.119 674.363 568.55 674.363 561.68C674.363 554.811 668.79 549.241 661.915 549.241C655.041 549.241 649.468 554.811 649.468 561.68C649.468 568.55 655.041 574.119 661.915 574.119Z" fill="url(#paint37_linear)"/>
</g>
<path d="M661.915 573.207C668.286 573.207 673.45 568.046 673.45 561.681C673.45 555.315 668.286 550.154 661.915 550.154C655.545 550.154 650.381 555.315 650.381 561.681C650.381 568.046 655.545 573.207 661.915 573.207Z" fill="url(#paint38_linear)"/>
<g opacity="0.7">
<path opacity="0.7" d="M718.917 695.269C726.415 695.269 732.492 689.195 732.492 681.703C732.492 674.211 726.415 668.138 718.917 668.138C711.42 668.138 705.342 674.211 705.342 681.703C705.342 689.195 711.42 695.269 718.917 695.269Z" fill="url(#paint39_linear)"/>
</g>
<path d="M718.917 694.589C726.039 694.589 731.812 688.82 731.812 681.704C731.812 674.587 726.039 668.818 718.917 668.818C711.796 668.818 706.022 674.587 706.022 681.704C706.022 688.82 711.796 694.589 718.917 694.589Z" fill="url(#paint40_linear)"/>
<g opacity="0.7">
<path opacity="0.7" d="M138.052 619.304C146.29 619.304 152.968 612.63 152.968 604.398C152.968 596.165 146.29 589.491 138.052 589.491C129.813 589.491 123.135 596.165 123.135 604.398C123.135 612.63 129.813 619.304 138.052 619.304Z" fill="url(#paint41_linear)"/>
</g>
<path d="M138.052 618.633C145.919 618.633 152.297 612.26 152.297 604.397C152.297 596.535 145.919 590.161 138.052 590.161C130.184 590.161 123.806 596.535 123.806 604.397C123.806 612.26 130.184 618.633 138.052 618.633Z" fill="url(#paint42_linear)"/>
<g opacity="0.4">
<path opacity="0.4" d="M700.013 16.2657C696.706 11.8996 692.564 8.23453 687.826 5.484C682.391 2.36284 676.311 0.531237 670.055 0.130512C663.799 -0.270212 657.535 0.770664 651.746 3.17282C645.956 5.57497 640.796 9.27418 636.664 13.985C632.532 18.6958 629.539 24.2923 627.914 30.3426C626.29 36.3929 626.078 42.7352 627.296 48.8802C628.513 55.0252 631.127 60.8086 634.936 65.784C638.744 70.7595 643.646 74.794 649.262 77.5763C654.879 80.3586 661.06 81.8142 667.328 81.8309C668.195 81.8309 669.061 81.8309 669.919 81.7471C677.294 81.2822 684.405 78.8297 690.498 74.6501C696.59 70.4706 701.436 64.72 704.52 58.0093C707.605 51.2985 708.813 43.8782 708.016 36.5365C707.219 29.1949 704.447 22.206 699.994 16.3122L700.013 16.2657Z" fill="url(#paint43_linear)"/>
</g>
<path opacity="0.2" d="M706.023 40.8922C706.023 50.719 702.278 60.1771 695.549 67.3427C688.82 74.5084 679.612 78.8434 669.798 79.466C668.987 79.5218 668.167 79.5498 667.347 79.5498C661.417 79.5463 655.567 78.1799 650.249 75.5564C644.931 72.9329 640.288 69.1224 636.68 64.4196C633.071 59.7169 630.593 54.2477 629.437 48.4351C628.281 42.6225 628.478 36.622 630.013 30.8977C631.548 25.1733 634.38 19.8784 638.289 15.4223C642.199 10.9662 647.082 7.46829 652.56 5.19896C658.039 2.92963 663.966 1.94969 669.884 2.33491C675.802 2.72013 681.552 4.46019 686.69 7.42055C691.17 10.0209 695.088 13.4866 698.215 17.6157C703.293 24.3136 706.035 32.4892 706.023 40.8922Z" fill="#10AC84"/>
<path opacity="0.05" d="M657.825 16.3774C655.827 17.2387 653.899 18.2535 652.058 19.4127C650.828 20.094 649.773 21.0499 648.974 22.2058C648.583 22.7856 648.369 23.4655 648.356 24.164C648.342 24.8626 648.531 25.5502 648.899 26.1442C649.831 27.4291 651.694 27.6339 653.25 27.7177C654.68 28.0212 656.165 27.9398 657.553 27.4817C658.942 27.0237 660.183 26.2055 661.151 25.1107L664.477 22.0941C665.633 21.0513 666.9 19.6082 666.397 18.1371C666.015 17.0105 664.748 16.4612 663.602 16.275C660.743 15.7127 657.777 16.2338 655.281 17.7367" fill="#10AC84"/>
<path opacity="0.05" d="M643.933 58.182C645.055 58.182 645.964 57.2733 645.964 56.1523C645.964 55.0313 645.055 54.1226 643.933 54.1226C642.811 54.1226 641.902 55.0313 641.902 56.1523C641.902 57.2733 642.811 58.182 643.933 58.182Z" fill="#10AC84"/>
<path opacity="0.05" d="M685.329 50.7242C689.451 50.7242 692.792 47.3852 692.792 43.2664C692.792 39.1476 689.451 35.8086 685.329 35.8086C681.207 35.8086 677.866 39.1476 677.866 43.2664C677.866 47.3852 681.207 50.7242 685.329 50.7242Z" fill="#10AC84"/>
<path opacity="0.05" d="M698.224 17.6064C698.194 19.5551 697.606 21.4543 696.527 23.0783C695.449 24.7023 693.927 25.9827 692.142 26.7675C690.357 27.5522 688.384 27.8081 686.457 27.5049C684.531 27.2017 682.732 26.3521 681.274 25.057C679.817 23.7619 678.762 22.0759 678.236 20.1994C677.71 18.3228 677.733 16.3347 678.305 14.4713C678.876 12.6079 679.971 10.9476 681.459 9.68783C682.947 8.42804 684.765 7.62173 686.699 7.36475C691.184 9.97877 695.102 13.4606 698.224 17.6064Z" fill="#10AC84"/>
<path opacity="0.05" d="M698.969 63.1538C695.642 67.8848 691.293 71.8073 686.243 74.631C681.193 77.4546 675.573 79.1071 669.798 79.466C669.751 78.9353 669.723 78.3953 669.723 77.8553C669.724 74.4628 670.668 71.1373 672.45 68.2497C674.232 65.3621 676.781 63.0258 679.814 61.5013C682.847 59.9768 686.244 59.3241 689.626 59.6158C693.008 59.9076 696.243 61.1325 698.969 63.1538Z" fill="#10AC84"/>
<path opacity="0.25" d="M673.45 325.703C676.074 325.703 678.201 323.577 678.201 320.955C678.201 318.332 676.074 316.207 673.45 316.207C670.825 316.207 668.698 318.332 668.698 320.955C668.698 323.577 670.825 325.703 673.45 325.703Z" fill="#10AC84"/>
<path opacity="0.25" d="M39.8865 450.465C42.5108 450.465 44.6382 448.339 44.6382 445.717C44.6382 443.095 42.5108 440.969 39.8865 440.969C37.2622 440.969 35.1348 443.095 35.1348 445.717C35.1348 448.339 37.2622 450.465 39.8865 450.465Z" fill="#10AC84"/>
<path opacity="0.25" d="M856.997 477.466C859.621 477.466 861.748 475.34 861.748 472.718C861.748 470.095 859.621 467.969 856.997 467.969C854.372 467.969 852.245 470.095 852.245 472.718C852.245 475.34 854.372 477.466 856.997 477.466Z" fill="#10AC84"/>
<path opacity="0.25" d="M269.013 252.466C271.637 252.466 273.764 250.34 273.764 247.718C273.764 245.095 271.637 242.969 269.013 242.969C266.389 242.969 264.261 245.095 264.261 247.718C264.261 250.34 266.389 252.466 269.013 252.466Z" fill="#10AC84"/>
<path opacity="0.25" d="M253.407 143.29C256.031 143.29 258.158 141.164 258.158 138.542C258.158 135.919 256.031 133.793 253.407 133.793C250.782 133.793 248.655 135.919 248.655 138.542C248.655 141.164 250.782 143.29 253.407 143.29Z" fill="#10AC84"/>
<path opacity="0.25" d="M119.045 359.603C121.669 359.603 123.796 357.477 123.796 354.855C123.796 352.232 121.669 350.106 119.045 350.106C116.42 350.106 114.293 352.232 114.293 354.855C114.293 357.477 116.42 359.603 119.045 359.603Z" fill="#10AC84"/>
<path opacity="0.25" d="M791.19 360.432H786.96V356.214H785.236V360.432H781.006V362.164H785.236V366.381H786.96V362.164H791.19V360.432Z" fill="#10AC84"/>
<path opacity="0.25" d="M862 214.256H857.77V210.038H856.046V214.256H851.816V215.987H856.046V220.205H857.77V215.987H862V214.256Z" fill="#10AC84"/>
<path opacity="0.25" d="M560.47 132.592H556.241V128.365H554.517V132.592H550.287V134.315H554.517V138.542H556.241V134.315H560.47V132.592Z" fill="#10AC84"/>
<path opacity="0.25" d="M745.042 336.699H740.812V332.481H739.089V336.699H734.868V338.431H739.089V342.649H740.812V338.431H745.042V336.699Z" fill="#10AC84"/>
<path opacity="0.25" d="M590.323 477.066H586.102V472.848H584.378V477.066H580.148V478.798H584.378V483.015H586.102V478.798H590.323V477.066Z" fill="#10AC84"/>
<path opacity="0.25" d="M157.394 187.515H153.164V183.298H151.44V187.515H147.21V189.238H151.44V193.465H153.164V189.238H157.394V187.515Z" fill="#10AC84"/>
<path opacity="0.25" d="M10.1836 242.448H5.95363V238.23H4.22997V242.448H0V244.17H4.22997V248.397H5.95363V244.17H10.1836V242.448Z" fill="#10AC84"/>
<path opacity="0.25" d="M215.747 415.364H211.517V411.137H209.793V415.364H205.573V417.087H209.793V421.314H211.517V417.087H215.747V415.364Z" fill="#10AC84"/>
<path d="M718.917 694.589C726.039 694.589 731.812 688.82 731.812 681.704C731.812 674.587 726.039 668.818 718.917 668.818C711.796 668.818 706.022 674.587 706.022 681.704C706.022 688.82 711.796 694.589 718.917 694.589Z" fill="url(#paint44_linear)"/>
<g opacity="0.4">
<path opacity="0.4" d="M250.593 324.307C249.018 322.226 247.045 320.479 244.788 319.167C242.2 317.662 239.299 316.772 236.31 316.568C233.322 316.365 230.327 316.852 227.558 317.992C224.789 319.132 222.319 320.895 220.342 323.143C218.365 325.391 216.933 328.064 216.157 330.955C215.381 333.846 215.282 336.877 215.868 339.812C216.454 342.747 217.709 345.508 219.536 347.88C221.363 350.252 223.712 352.172 226.401 353.489C229.09 354.807 232.047 355.488 235.043 355.479C235.453 355.479 235.872 355.479 236.272 355.479C239.783 355.254 243.168 354.084 246.067 352.093C248.967 350.102 251.273 347.364 252.741 344.169C254.209 340.974 254.785 337.442 254.407 333.947C254.028 330.451 252.71 327.123 250.593 324.316V324.307Z" fill="url(#paint45_linear)"/>
</g>
<path opacity="0.2" d="M253.453 336.038C253.453 340.718 251.669 345.223 248.463 348.635C245.258 352.048 240.872 354.112 236.198 354.408C235.816 354.408 235.425 354.408 235.033 354.408C232.209 354.405 229.424 353.753 226.892 352.503C224.36 351.253 222.15 349.438 220.432 347.199C218.715 344.959 217.535 342.354 216.985 339.586C216.435 336.819 216.529 333.961 217.26 331.236C217.991 328.51 219.34 325.989 221.201 323.867C223.063 321.745 225.388 320.079 227.996 318.998C230.605 317.917 233.427 317.45 236.245 317.633C239.063 317.815 241.801 318.643 244.248 320.052C246.38 321.29 248.246 322.939 249.736 324.903C252.164 328.106 253.47 332.019 253.453 336.038Z" fill="#10AC84"/>
<path opacity="0.1" d="M230.496 324.363C229.528 324.77 228.593 325.252 227.701 325.806C227.116 326.125 226.612 326.574 226.229 327.119C226.051 327.397 225.957 327.72 225.957 328.05C225.957 328.38 226.051 328.703 226.229 328.981C226.5 329.246 226.825 329.45 227.181 329.579C227.538 329.707 227.919 329.757 228.297 329.726C228.972 329.864 229.672 329.822 230.326 329.605C230.98 329.387 231.566 329.002 232.024 328.487L233.608 327.053C234.158 326.551 234.763 325.871 234.54 325.191C234.415 324.934 234.226 324.713 233.991 324.55C233.756 324.387 233.483 324.287 233.198 324.26C231.837 323.994 230.426 324.243 229.238 324.959" fill="#10AC84"/>
<path opacity="0.1" d="M223.881 344.269C224.416 344.269 224.85 343.835 224.85 343.3C224.85 342.766 224.416 342.332 223.881 342.332C223.346 342.332 222.912 342.766 222.912 343.3C222.912 343.835 223.346 344.269 223.881 344.269Z" fill="#10AC84"/>
<path opacity="0.1" d="M243.596 340.722C245.561 340.722 247.155 339.129 247.155 337.165C247.155 335.201 245.561 333.608 243.596 333.608C241.63 333.608 240.037 335.201 240.037 337.165C240.037 339.129 241.63 340.722 243.596 340.722Z" fill="#10AC84"/>
<path opacity="0.1" d="M249.736 324.986C249.724 325.914 249.446 326.818 248.934 327.592C248.423 328.366 247.7 328.977 246.851 329.353C246.002 329.728 245.063 329.851 244.146 329.709C243.229 329.566 242.372 329.163 241.678 328.548C240.983 327.933 240.48 327.131 240.228 326.239C239.976 325.346 239.986 324.4 240.257 323.513C240.528 322.625 241.048 321.835 241.755 321.234C242.463 320.634 243.328 320.249 244.248 320.126C246.381 321.367 248.247 323.019 249.736 324.986Z" fill="#10AC84"/>
<path opacity="0.1" d="M250.099 346.643C248.515 348.897 246.444 350.766 244.04 352.112C241.635 353.458 238.958 354.246 236.207 354.417C236.207 354.166 236.207 353.905 236.207 353.644C236.202 352.021 236.65 350.429 237.501 349.046C238.352 347.663 239.573 346.545 241.025 345.818C242.477 345.09 244.103 344.782 245.721 344.928C247.339 345.074 248.884 345.668 250.183 346.643H250.099Z" fill="#10AC84"/>
<g opacity="0.1">
<path opacity="0.1" d="M459.883 188.121H363.917V191.845H459.883V188.121Z" fill="#10AC84"/>
</g>
<defs>
<linearGradient id="paint0_linear" x1="656.536" y1="660.123" x2="656.536" y2="179.732" gradientUnits="userSpaceOnUse">
<stop stop-color="#808080" stop-opacity="0.25"/>
<stop offset="0.54" stop-color="#808080" stop-opacity="0.12"/>
<stop offset="1" stop-color="#808080" stop-opacity="0.1"/>
</linearGradient>
<linearGradient id="paint1_linear" x1="584.225" y1="602.974" x2="584.225" y2="649.548" gradientUnits="userSpaceOnUse">
<stop stop-color="#E0E0E0"/>
<stop offset="0.31" stop-color="#FCCC63"/>
<stop offset="0.77" stop-color="#F55F44"/>
</linearGradient>
<linearGradient id="paint2_linear" x1="7852.1" y1="29343.9" x2="7852.1" y2="32260.4" gradientUnits="userSpaceOnUse">
<stop stop-color="#E0E0E0"/>
<stop offset="0.31" stop-color="#FCCC63"/>
<stop offset="0.77" stop-color="#F55F44"/>
</linearGradient>
<linearGradient id="paint3_linear" x1="8692.83" y1="29343.9" x2="8692.83" y2="32260.4" gradientUnits="userSpaceOnUse">
<stop stop-color="#E0E0E0"/>
<stop offset="0.31" stop-color="#FCCC63"/>
<stop offset="0.77" stop-color="#F55F44"/>
</linearGradient>
<linearGradient id="paint4_linear" x1="10049.8" y1="29343.9" x2="10049.8" y2="32260.4" gradientUnits="userSpaceOnUse">
<stop stop-color="#E0E0E0"/>
<stop offset="0.31" stop-color="#FCCC63"/>
<stop offset="0.77" stop-color="#F55F44"/>
</linearGradient>
<linearGradient id="paint5_linear" x1="265528" y1="116841" x2="265528" y2="90768.7" gradientUnits="userSpaceOnUse">
<stop stop-color="#808080" stop-opacity="0.25"/>
<stop offset="0.54" stop-color="#808080" stop-opacity="0.12"/>
<stop offset="1" stop-color="#808080" stop-opacity="0.1"/>
</linearGradient>
<linearGradient id="paint6_linear" x1="529.798" y1="580.159" x2="529.798" y2="688.478" gradientUnits="userSpaceOnUse">
<stop stop-color="#F2F2F2"/>
<stop offset="0.31" stop-color="#E6E6E6"/>
<stop offset="0.77" stop-color="#CCCCCC"/>
</linearGradient>
<linearGradient id="paint7_linear" x1="32773.8" y1="72581.2" x2="32773.8" y2="91499.5" gradientUnits="userSpaceOnUse">
<stop stop-color="#F2F2F2"/>
<stop offset="0.31" stop-color="#E6E6E6"/>
<stop offset="0.77" stop-color="#CCCCCC"/>
</linearGradient>
<linearGradient id="paint8_linear" x1="71456.4" y1="72581.2" x2="71456.4" y2="91499.5" gradientUnits="userSpaceOnUse">
<stop stop-color="#F2F2F2"/>
<stop offset="0.31" stop-color="#E6E6E6"/>
<stop offset="0.77" stop-color="#CCCCCC"/>
</linearGradient>
<linearGradient id="paint9_linear" x1="64885.6" y1="67844.3" x2="64885.6" y2="83622" gradientUnits="userSpaceOnUse">
<stop stop-color="#F2F2F2"/>
<stop offset="0.31" stop-color="#E6E6E6"/>
<stop offset="0.77" stop-color="#CCCCCC"/>
</linearGradient>
<linearGradient id="paint10_linear" x1="62880.7" y1="69236.5" x2="62880.7" y2="82168.3" gradientUnits="userSpaceOnUse">
<stop stop-color="#F2F2F2"/>
<stop offset="0.31" stop-color="#E6E6E6"/>
<stop offset="0.77" stop-color="#CCCCCC"/>
</linearGradient>
<linearGradient id="paint11_linear" x1="72705.2" y1="45038.8" x2="72705.2" y2="49724.6" gradientUnits="userSpaceOnUse">
<stop stop-color="#F2F2F2"/>
<stop offset="0.31" stop-color="#E6E6E6"/>
<stop offset="0.77" stop-color="#CCCCCC"/>
</linearGradient>
<linearGradient id="paint12_linear" x1="87695.3" y1="52157.7" x2="87695.3" y2="58721.5" gradientUnits="userSpaceOnUse">
<stop stop-color="#F2F2F2"/>
<stop offset="0.31" stop-color="#E6E6E6"/>
<stop offset="0.77" stop-color="#CCCCCC"/>
</linearGradient>
<linearGradient id="paint13_linear" x1="39262.6" y1="52187.7" x2="39262.6" y2="58755.3" gradientUnits="userSpaceOnUse">
<stop stop-color="#F2F2F2"/>
<stop offset="0.31" stop-color="#E6E6E6"/>
<stop offset="0.77" stop-color="#CCCCCC"/>
</linearGradient>
<linearGradient id="paint14_linear" x1="14961.6" y1="12835.2" x2="14961.6" y2="12304.2" gradientUnits="userSpaceOnUse">
<stop stop-color="#808080" stop-opacity="0.25"/>
<stop offset="0.54" stop-color="#808080" stop-opacity="0.12"/>
<stop offset="1" stop-color="#808080" stop-opacity="0.1"/>
</linearGradient>
<linearGradient id="paint15_linear" x1="13926.9" y1="11463.2" x2="13926.9" y2="11919.1" gradientUnits="userSpaceOnUse">
<stop stop-color="#F2F2F2"/>
<stop offset="0.31" stop-color="#E6E6E6"/>
<stop offset="0.77" stop-color="#CCCCCC"/>
</linearGradient>
<linearGradient id="paint16_linear" x1="17610.5" y1="16859.5" x2="17610.5" y2="16228.2" gradientUnits="userSpaceOnUse">
<stop stop-color="#808080" stop-opacity="0.25"/>
<stop offset="0.54" stop-color="#808080" stop-opacity="0.12"/>
<stop offset="1" stop-color="#808080" stop-opacity="0.1"/>
</linearGradient>
<linearGradient id="paint17_linear" x1="900.799" y1="678.186" x2="900.799" y2="698.77" gradientUnits="userSpaceOnUse">
<stop stop-color="#F2F2F2"/>
<stop offset="0.31" stop-color="#E0E0E0"/>
<stop offset="0.77" stop-color="#B3B3B3"/>
</linearGradient>
<linearGradient id="paint18_linear" x1="3953.4" y1="16453.1" x2="3953.4" y2="15690.7" gradientUnits="userSpaceOnUse">
<stop stop-color="#808080" stop-opacity="0.25"/>
<stop offset="0.54" stop-color="#808080" stop-opacity="0.12"/>
<stop offset="1" stop-color="#808080" stop-opacity="0.1"/>
</linearGradient>
<linearGradient id="paint19_linear" x1="3795.27" y1="15029.7" x2="3795.27" y2="15725.3" gradientUnits="userSpaceOnUse">
<stop stop-color="#F2F2F2"/>
<stop offset="0.31" stop-color="#E6E6E6"/>
<stop offset="0.77" stop-color="#CCCCCC"/>
</linearGradient>
<linearGradient id="paint20_linear" x1="56519.2" y1="10124.5" x2="56519.2" y2="4386.65" gradientUnits="userSpaceOnUse">
<stop stop-color="#808080" stop-opacity="0.25"/>
<stop offset="0.54" stop-color="#808080" stop-opacity="0.12"/>
<stop offset="1" stop-color="#808080" stop-opacity="0.1"/>
</linearGradient>
<linearGradient id="paint21_linear" x1="16773.3" y1="15464.4" x2="16773.3" y2="16034.2" gradientUnits="userSpaceOnUse">
<stop stop-color="#F2F2F2"/>
<stop offset="0.31" stop-color="#E6E6E6"/>
<stop offset="0.77" stop-color="#CCCCCC"/>
</linearGradient>
<linearGradient id="paint22_linear" x1="12637.2" y1="14298.2" x2="12637.2" y2="12996.4" gradientUnits="userSpaceOnUse">
<stop stop-color="#808080" stop-opacity="0.25"/>
<stop offset="0.54" stop-color="#808080" stop-opacity="0.12"/>
<stop offset="1" stop-color="#808080" stop-opacity="0.1"/>
</linearGradient>
<linearGradient id="paint23_linear" x1="412.878" y1="646.202" x2="412.878" y2="44.7375" gradientUnits="userSpaceOnUse">
<stop stop-color="#808080" stop-opacity="0.25"/>
<stop offset="0.54" stop-color="#808080" stop-opacity="0.12"/>
<stop offset="1" stop-color="#808080" stop-opacity="0.1"/>
</linearGradient>
<linearGradient id="paint24_linear" x1="322.279" y1="574.65" x2="322.279" y2="632.962" gradientUnits="userSpaceOnUse">
<stop stop-color="#E0E0E0"/>
<stop offset="0.31" stop-color="#FCCC63"/>
<stop offset="0.77" stop-color="#F55F44"/>
</linearGradient>
<linearGradient id="paint25_linear" x1="9428.26" y1="36559.2" x2="9428.26" y2="40210.7" gradientUnits="userSpaceOnUse">
<stop stop-color="#E0E0E0"/>
<stop offset="0.31" stop-color="#FCCC63"/>
<stop offset="0.77" stop-color="#F55F44"/>
</linearGradient>
<linearGradient id="paint26_linear" x1="10481.6" y1="36559.2" x2="10481.6" y2="40210.7" gradientUnits="userSpaceOnUse">
<stop stop-color="#E0E0E0"/>
<stop offset="0.31" stop-color="#FCCC63"/>
<stop offset="0.77" stop-color="#F55F44"/>
</linearGradient>
<linearGradient id="paint27_linear" x1="12181.8" y1="36559.2" x2="12181.8" y2="40210.7" gradientUnits="userSpaceOnUse">
<stop stop-color="#E0E0E0"/>
<stop offset="0.31" stop-color="#FCCC63"/>
<stop offset="0.77" stop-color="#F55F44"/>
</linearGradient>
<linearGradient id="paint28_linear" x1="332272" y1="146108" x2="332272" y2="113465" gradientUnits="userSpaceOnUse">
<stop stop-color="#808080" stop-opacity="0.25"/>
<stop offset="0.54" stop-color="#808080" stop-opacity="0.12"/>
<stop offset="1" stop-color="#808080" stop-opacity="0.1"/>
</linearGradient>
<linearGradient id="paint29_linear" x1="254.087" y1="546.085" x2="254.087" y2="681.703" gradientUnits="userSpaceOnUse">
<stop stop-color="#F2F2F2"/>
<stop offset="0.31" stop-color="#E6E6E6"/>
<stop offset="0.77" stop-color="#CCCCCC"/>
</linearGradient>
<linearGradient id="paint30_linear" x1="40652.8" y1="90693.7" x2="40652.8" y2="114380" gradientUnits="userSpaceOnUse">
<stop stop-color="#F2F2F2"/>
<stop offset="0.31" stop-color="#E6E6E6"/>
<stop offset="0.77" stop-color="#CCCCCC"/>
</linearGradient>
<linearGradient id="paint31_linear" x1="89118.6" y1="90693.7" x2="89118.6" y2="114380" gradientUnits="userSpaceOnUse">
<stop stop-color="#F2F2F2"/>
<stop offset="0.31" stop-color="#E6E6E6"/>
<stop offset="0.77" stop-color="#CCCCCC"/>
</linearGradient>
<linearGradient id="paint32_linear" x1="80885.9" y1="84763" x2="80885.9" y2="104517" gradientUnits="userSpaceOnUse">
<stop stop-color="#F2F2F2"/>
<stop offset="0.31" stop-color="#E6E6E6"/>
<stop offset="0.77" stop-color="#CCCCCC"/>
</linearGradient>
<linearGradient id="paint33_linear" x1="78374" y1="86506.1" x2="78374" y2="102697" gradientUnits="userSpaceOnUse">
<stop stop-color="#F2F2F2"/>
<stop offset="0.31" stop-color="#E6E6E6"/>
<stop offset="0.77" stop-color="#CCCCCC"/>
</linearGradient>
<linearGradient id="paint34_linear" x1="90683.1" y1="56209.6" x2="90683.1" y2="62076.4" gradientUnits="userSpaceOnUse">
<stop stop-color="#F2F2F2"/>
<stop offset="0.31" stop-color="#E6E6E6"/>
<stop offset="0.77" stop-color="#CCCCCC"/>
</linearGradient>
<linearGradient id="paint35_linear" x1="109464" y1="65122.8" x2="109464" y2="73340.9" gradientUnits="userSpaceOnUse">
<stop stop-color="#F2F2F2"/>
<stop offset="0.31" stop-color="#E6E6E6"/>
<stop offset="0.77" stop-color="#CCCCCC"/>
</linearGradient>
<linearGradient id="paint36_linear" x1="48782.7" y1="65160.3" x2="48782.7" y2="73383.2" gradientUnits="userSpaceOnUse">
<stop stop-color="#F2F2F2"/>
<stop offset="0.31" stop-color="#E6E6E6"/>
<stop offset="0.77" stop-color="#CCCCCC"/>
</linearGradient>
<linearGradient id="paint37_linear" x1="18335.8" y1="15889.7" x2="18335.8" y2="15225" gradientUnits="userSpaceOnUse">
<stop stop-color="#808080" stop-opacity="0.25"/>
<stop offset="0.54" stop-color="#808080" stop-opacity="0.12"/>
<stop offset="1" stop-color="#808080" stop-opacity="0.1"/>
</linearGradient>
<linearGradient id="paint38_linear" x1="17039.4" y1="14171.9" x2="17039.4" y2="14742.7" gradientUnits="userSpaceOnUse">
<stop stop-color="#F2F2F2"/>
<stop offset="0.31" stop-color="#E6E6E6"/>
<stop offset="0.77" stop-color="#CCCCCC"/>
</linearGradient>
<linearGradient id="paint39_linear" x1="21654.6" y1="20928.2" x2="21654.6" y2="20137.9" gradientUnits="userSpaceOnUse">
<stop stop-color="#808080" stop-opacity="0.25"/>
<stop offset="0.54" stop-color="#808080" stop-opacity="0.12"/>
<stop offset="1" stop-color="#808080" stop-opacity="0.1"/>
</linearGradient>
<linearGradient id="paint40_linear" x1="718.917" y1="668.818" x2="718.917" y2="694.589" gradientUnits="userSpaceOnUse">
<stop stop-color="#F2F2F2"/>
<stop offset="0.31" stop-color="#E0E0E0"/>
<stop offset="0.77" stop-color="#B3B3B3"/>
</linearGradient>
<linearGradient id="paint41_linear" x1="4543.54" y1="20419.6" x2="4543.54" y2="19465" gradientUnits="userSpaceOnUse">
<stop stop-color="#808080" stop-opacity="0.25"/>
<stop offset="0.54" stop-color="#808080" stop-opacity="0.12"/>
<stop offset="1" stop-color="#808080" stop-opacity="0.1"/>
</linearGradient>
<linearGradient id="paint42_linear" x1="4345.42" y1="18637.3" x2="4345.42" y2="19508.3" gradientUnits="userSpaceOnUse">
<stop stop-color="#F2F2F2"/>
<stop offset="0.31" stop-color="#E6E6E6"/>
<stop offset="0.77" stop-color="#CCCCCC"/>
</linearGradient>
<linearGradient id="paint43_linear" x1="70403.7" y1="12495.8" x2="70403.7" y2="5311.93" gradientUnits="userSpaceOnUse">
<stop stop-color="#808080" stop-opacity="0.25"/>
<stop offset="0.54" stop-color="#808080" stop-opacity="0.12"/>
<stop offset="1" stop-color="#808080" stop-opacity="0.1"/>
</linearGradient>
<linearGradient id="paint44_linear" x1="20605.6" y1="19181.6" x2="20605.6" y2="19895" gradientUnits="userSpaceOnUse">
<stop stop-color="#F2F2F2"/>
<stop offset="0.31" stop-color="#E6E6E6"/>
<stop offset="0.77" stop-color="#CCCCCC"/>
</linearGradient>
<linearGradient id="paint45_linear" x1="15423.6" y1="17721.5" x2="15423.6" y2="16091.6" gradientUnits="userSpaceOnUse">
<stop stop-color="#808080" stop-opacity="0.25"/>
<stop offset="0.54" stop-color="#808080" stop-opacity="0.12"/>
<stop offset="1" stop-color="#808080" stop-opacity="0.1"/>
</linearGradient>
<clipPath id="clip0">
<rect width="688" height="572.669" fill="white" transform="translate(327 144)"/>
</clipPath>
</defs>
</svg>
