<svg width="461" height="280" viewBox="0 0 461 280" fill="none" xmlns="http://www.w3.org/2000/svg">
<path fill-rule="evenodd" clip-rule="evenodd" d="M35 35C35 15.67 50.67 0 70 0H276H321H328C330.367 0 332.679 0.234863 334.914 0.682678C405.702 7.66675 461 67.3755 461 140C461 217.32 398.32 280 321 280H276C274.438 280 272.881 279.974 271.331 279.924C289.574 278.724 304 263.547 304 245C304 225.67 288.33 210 269 210H154.729H139C119.67 210 104 194.33 104 175C104 156.681 118.074 141.648 136 140.127V140H179C198.33 140 214 124.33 214 105C214 85.67 198.33 70 179 70H154.729H76H70C50.67 70 35 54.33 35 35Z" fill="#FE4B20"/>
<path fill-rule="evenodd" clip-rule="evenodd" d="M181 31C181 13.8792 194.879 0 212 0H343.677H352.498C356.262 0 359.87 0.671021 363.208 1.89998C409.266 10.9879 444 51.599 444 100.323V147.677C444 203.084 399.084 248 343.677 248C337.597 248 331.643 247.459 325.861 246.423C338.185 242.325 347.073 230.7 347.073 217C347.073 199.879 333.194 186 316.073 186H250.934H240C222.879 186 209 172.121 209 155C209 137.879 222.879 124 240 124H243.354H260.509C277.63 124 291.509 110.121 291.509 93C291.509 75.8792 277.63 62 260.509 62H250.934H215.704H212C194.879 62 181 48.1208 181 31Z" fill="#FFA034"/>
<path fill-rule="evenodd" clip-rule="evenodd" d="M243 51.125C243 34.4874 256.487 21 273.125 21H377.843H380.725C382.192 21 383.635 21.1049 385.047 21.3077C427.6 24.9591 461 60.6577 461 104.157V178.843C461 224.769 423.769 262 377.843 262C371.972 262 366.244 261.392 360.717 260.235C372.343 256.059 380.657 244.938 380.657 231.875C380.657 215.237 367.17 201.75 350.532 201.75H297.881H294.992C277.725 201.75 263.845 187.53 264.265 170.267C264.598 156.564 273.858 145.149 286.383 141.5H304.476C321.114 141.5 334.601 128.013 334.601 111.375C334.601 94.7374 321.114 81.25 304.476 81.25L297.881 81.25L276.195 81.25L276.18 81.25H273.125C256.487 81.25 243 67.7626 243 51.125Z" fill="#FFDD58"/>
<circle cx="35" cy="175" r="35" fill="#FE4B20"/>
</svg>
